<?xml version="1.0" standalone="no"?>
<!DOCTYPE svg PUBLIC "-//W3C//DTD SVG 1.1//EN" "http://www.w3.org/Graphics/SVG/1.1/DTD/svg11.dtd" >
<svg xmlns="http://www.w3.org/2000/svg" xmlns:xlink="http://www.w3.org/1999/xlink" version="1.1">
<metadata>
Created by FontForge 20201107 at Tue May 15 20:49:10 2018
 By Unknown
Copyright \251 2018 by atipo. All rights reserved.
</metadata>
<defs>
<font id="BasierSquare-Medium" horiz-adv-x="583" >
  <font-face 
    font-family="Basier Square"
    font-weight="500"
    font-stretch="normal"
    units-per-em="1000"
    panose-1="0 0 6 0 0 0 0 0 0 0"
    ascent="800"
    descent="-200"
    x-height="516"
    cap-height="700"
    bbox="-179 -245 1155 977"
    underline-thickness="50"
    underline-position="-250"
    unicode-range="U+0020-25FC"
  />
<missing-glyph horiz-adv-x="940" 
 />
    <glyph glyph-name=".notdef" horiz-adv-x="940" 
 />
    <glyph glyph-name="NULL" horiz-adv-x="0" 
 />
    <glyph glyph-name="CR" horiz-adv-x="333" 
 />
    <glyph glyph-name="space" unicode=" " horiz-adv-x="291" 
 />
    <glyph glyph-name="exclam" unicode="!" horiz-adv-x="266" 
d="M170 222h-77l-21 382v96h124v-96zM199 0h-132v130h132v-130z" />
    <glyph glyph-name="quotedbl" unicode="&#x22;" horiz-adv-x="425" 
d="M156 431h-76l-20 152v117h116v-117zM344 431h-75l-20 152v117h116v-117z" />
    <glyph glyph-name="numbersign" unicode="#" horiz-adv-x="694" 
d="M644 516v-100h-126l-24 -137h100v-100h-117l-30 -179h-102l30 179h-122l-30 -179h-102l30 179h-101v100h118l24 137h-92v100h109l31 184h102l-31 -184h122l31 184h102l-31 -184h109zM270 279h122l24 137h-122z" />
    <glyph glyph-name="dollar" unicode="$" horiz-adv-x="632" 
d="M590 198c0 -117 -81 -193 -232 -205v-83h-81v82c-151 13 -233 99 -240 231h119c5 -69 49 -113 121 -124v212l-18 4c-129 28 -199 86 -199 198c0 108 82 183 217 194v83h81v-83c66 -7 119 -31 159 -70s60 -87 61 -145h-119c-3 60 -37 96 -101 107v-189l20 -4
c141 -29 212 -99 212 -208zM181 513c0 -42 32 -71 96 -86v174c-64 -8 -96 -37 -96 -88zM358 294v-196c74 9 111 41 111 98c0 53 -35 81 -108 97z" />
    <glyph glyph-name="percent" unicode="%" horiz-adv-x="850" 
d="M213 348c-101 0 -156 73 -156 182s55 182 156 182c100 0 155 -73 155 -182s-55 -182 -155 -182zM237 0h-101v10l474 690h99v-10zM213 427c47 0 70 34 70 103s-23 103 -70 103s-71 -34 -71 -103s24 -103 71 -103zM637 355c100 0 156 -73 156 -182s-55 -182 -156 -182
s-156 73 -156 182s55 182 156 182zM567 173c0 -69 23 -103 70 -103s70 34 70 103s-23 103 -70 103s-70 -34 -70 -103z" />
    <glyph glyph-name="ampersand" unicode="&#x26;" horiz-adv-x="731" 
d="M567 398h123v-10l-156 -218l149 -160v-10h-141l-75 82c-54 -61 -119 -91 -195 -91c-61 0 -113 18 -154 53c-41 36 -62 84 -62 145c0 71 42 132 127 182l12 7l-3 4c-49 53 -74 106 -74 159c0 48 17 88 52 119c35 32 80 48 135 49h2c58 0 104 -16 139 -47s52 -71 52 -120
c0 -39 -10 -72 -30 -97c-19 -25 -52 -50 -98 -77l-13 -8l104 -111zM285 437l3 -4l15 9c59 33 82 53 82 96c0 44 -28 73 -79 73h-2c-45 -1 -75 -31 -75 -71c0 -31 19 -66 56 -103zM279 95c43 0 82 21 117 64l-133 146l-16 -10c-49 -29 -73 -63 -73 -104c1 -56 41 -96 105 -96
z" />
    <glyph glyph-name="quotesingle" unicode="'" horiz-adv-x="236" 
d="M156 431h-76l-20 152v117h116v-117z" />
    <glyph glyph-name="parenleft" unicode="(" horiz-adv-x="365" 
d="M208 759h88v-10c-100 -131 -150 -282 -150 -453s50 -322 150 -453v-10h-88c-49 57 -89 125 -121 204c-32 80 -48 166 -48 259c0 189 70 348 169 463z" />
    <glyph glyph-name="parenright" unicode=")" horiz-adv-x="365" 
d="M69 759h88c99 -115 169 -274 169 -463c0 -93 -16 -179 -48 -259c-32 -79 -72 -147 -121 -204h-88v10c100 131 150 282 150 453s-50 322 -150 453v10z" />
    <glyph glyph-name="asterisk" unicode="*" horiz-adv-x="486" 
d="M292 365h-93l15 125l-4 3l-102 -73l-42 83l120 37v4l-120 38l42 83l101 -73l4 4l-14 124h93l-15 -124l4 -4l101 73l43 -83l-121 -38v-4l121 -37l-43 -83l-102 73l-4 -3z" />
    <glyph glyph-name="plus" unicode="+" horiz-adv-x="485" 
d="M297 66h-106v198h-186v98h186v198h106v-198h183v-98h-183v-198z" />
    <glyph glyph-name="comma" unicode="," horiz-adv-x="238" 
d="M119 -138h-90v10l31 235h129v-10z" />
    <glyph glyph-name="hyphen" unicode="-" horiz-adv-x="466" 
d="M386 241h-306v104h306v-104z" />
    <glyph glyph-name="period" unicode="." horiz-adv-x="241" 
d="M186 0h-132v130h132v-130z" />
    <glyph glyph-name="slash" unicode="/" horiz-adv-x="418" 
d="M121 -133h-106v10l281 860h107v-10z" />
    <glyph glyph-name="zero" unicode="0" horiz-adv-x="628" 
d="M57 352c0 111 21 198 62 263c42 65 107 97 195 97s153 -32 194 -97c42 -65 63 -152 63 -263s-21 -199 -63 -264c-41 -65 -106 -97 -194 -97s-153 32 -195 97c-41 65 -62 153 -62 264zM454 352c0 165 -37 258 -140 258s-140 -93 -140 -258c0 -167 36 -259 140 -259
s140 92 140 259z" />
    <glyph glyph-name="one" unicode="1" horiz-adv-x="425" 
d="M336 0h-115v579h-4l-161 -123h-10v112l174 132h116v-700z" />
    <glyph glyph-name="two" unicode="2" horiz-adv-x="569" 
d="M517 0h-463v92l235 253c39 43 66 74 79 95c14 21 21 45 21 71c0 60 -39 99 -108 99c-71 0 -116 -42 -116 -119h-113c0 67 20 121 61 161s97 60 168 60c68 0 122 -18 163 -55s62 -84 62 -142c0 -36 -9 -70 -28 -102c-19 -31 -51 -72 -97 -121l-172 -184v-4h308v-104z" />
    <glyph glyph-name="three" unicode="3" horiz-adv-x="603" 
d="M301 -9c-74 0 -134 19 -180 57c-45 38 -68 90 -68 157h114c0 -64 44 -113 133 -113c83 0 128 43 128 110c0 71 -47 112 -138 112h-61v101h59c73 0 118 40 118 101c0 55 -39 95 -111 95c-76 0 -116 -42 -117 -109h-115c3 131 92 210 235 210c65 0 118 -17 161 -52
c43 -34 65 -79 65 -134c0 -75 -34 -126 -101 -151v-4c75 -23 123 -87 123 -167c0 -61 -21 -112 -64 -153c-42 -40 -102 -60 -181 -60z" />
    <glyph glyph-name="four" unicode="4" horiz-adv-x="588" 
d="M464 0h-115v139h-314v114l279 447h150v-459h90v-102h-90v-139zM147 245v-4h202v329h-4z" />
    <glyph glyph-name="five" unicode="5" horiz-adv-x="594" 
d="M296 -9c-72 0 -131 20 -176 60c-45 41 -67 91 -67 151h115c3 -61 48 -109 128 -109c88 0 130 57 130 138c0 77 -44 134 -129 134c-49 0 -89 -20 -119 -61h-114l27 396h409v-103h-313l-13 -184h4c33 32 79 48 136 48c69 0 125 -22 166 -65s62 -97 62 -163
c0 -145 -89 -242 -246 -242z" />
    <glyph glyph-name="six" unicode="6" horiz-adv-x="618" 
d="M314 -9c-87 0 -151 31 -194 93c-42 63 -63 148 -63 255c0 110 22 200 66 269c45 69 112 104 201 104c65 0 117 -18 158 -54c41 -35 65 -81 72 -136h-112c-9 53 -53 87 -118 87c-104 0 -156 -90 -156 -233h4c35 54 89 81 160 81s126 -22 167 -67s62 -98 62 -161
c0 -69 -22 -126 -67 -171s-105 -67 -180 -67zM315 93c79 0 131 55 131 134s-48 134 -131 134c-81 0 -132 -56 -132 -133c0 -80 51 -135 132 -135z" />
    <glyph glyph-name="seven" unicode="7" horiz-adv-x="541" 
d="M212 0h-119v10l298 581v4h-359v105h477v-110z" />
    <glyph glyph-name="eight" unicode="8" horiz-adv-x="602" 
d="M435 373v-4c77 -30 115 -87 115 -171c0 -129 -97 -206 -249 -207c-152 1 -249 78 -249 207c0 84 38 141 115 171v4c-63 30 -94 81 -94 154c0 56 21 101 62 134c42 33 97 50 166 51c69 -1 124 -18 165 -51c42 -33 63 -78 63 -134c0 -73 -31 -124 -94 -154zM189 516
c0 -59 44 -98 112 -98s112 39 112 98c0 60 -41 96 -112 96s-112 -36 -112 -96zM301 91c85 1 132 43 132 114c0 68 -45 112 -132 113c-87 -1 -132 -45 -132 -113c0 -71 47 -113 132 -114z" />
    <glyph glyph-name="nine" unicode="9" horiz-adv-x="618" 
d="M293 -9c-65 0 -118 18 -159 53c-41 36 -64 82 -71 137h113c8 -53 52 -87 117 -87c104 0 157 90 157 233h-4c-35 -54 -89 -81 -161 -81c-71 0 -126 22 -167 67s-61 98 -61 161c0 69 22 125 67 170s105 68 180 68c87 0 151 -31 193 -94c43 -62 64 -147 64 -254
c0 -71 -9 -134 -27 -189c-35 -108 -120 -184 -241 -184zM303 342c81 0 132 56 132 133c0 80 -52 135 -132 135c-79 0 -131 -55 -131 -134s48 -134 131 -134z" />
    <glyph glyph-name="colon" unicode=":" horiz-adv-x="241" 
d="M186 339h-132v130h132v-130zM186 0h-132v130h132v-130z" />
    <glyph glyph-name="semicolon" unicode=";" horiz-adv-x="238" 
d="M186 339h-132v130h132v-130zM119 -138h-90v10l31 235h129v-10z" />
    <glyph glyph-name="less" unicode="&#x3c;" horiz-adv-x="520" 
d="M479 100v-112l-438 247v98l438 247v-112l-327 -182v-4z" />
    <glyph glyph-name="equal" unicode="=" horiz-adv-x="485" 
d="M480 360h-475v98h475v-98zM480 157h-475v98h475v-98z" />
    <glyph glyph-name="greater" unicode="&#x3e;" horiz-adv-x="520" 
d="M479 235l-438 -247v112l327 182v4l-327 182v112l438 -247v-98z" />
    <glyph glyph-name="question" unicode="?" horiz-adv-x="543" 
d="M314 222h-110v16c0 39 7 70 20 91c14 22 37 46 70 72l32 25c34 27 51 57 52 92c0 52 -36 91 -104 91c-73 0 -111 -41 -111 -110h-116c0 61 19 112 58 151c39 40 96 60 169 60c67 0 120 -17 161 -52s61 -80 61 -135c0 -63 -25 -114 -76 -153l-42 -33
c-25 -19 -42 -35 -51 -48c-9 -12 -13 -29 -13 -51v-16zM325 0h-132v130h132v-130z" />
    <glyph glyph-name="at" unicode="@" horiz-adv-x="903" 
d="M462 -100c-121 0 -220 36 -296 107s-114 170 -114 297c0 119 40 216 119 291c80 76 180 114 300 114c110 0 201 -32 272 -96s107 -149 107 -255c0 -163 -70 -264 -190 -264c-55 0 -97 27 -105 68h-4c-27 -43 -69 -65 -125 -65c-100 0 -163 80 -163 197
c0 59 15 107 46 145s73 57 125 57c44 0 89 -24 108 -60h4l7 49h81l-9 -256c-1 -36 14 -54 47 -54c59 0 93 74 93 183c0 81 -27 147 -81 196c-54 50 -126 75 -216 75c-97 0 -175 -32 -236 -95s-91 -142 -91 -236c0 -98 29 -175 88 -232s137 -85 234 -85c82 0 150 12 205 35
v-79c-55 -25 -123 -37 -206 -37zM443 180c64 0 97 51 97 124c0 69 -36 111 -91 111c-59 0 -93 -49 -93 -122c0 -69 32 -113 87 -113z" />
    <glyph glyph-name="A" unicode="A" horiz-adv-x="691" 
d="M271 700h147l251 -690v-10h-128l-55 162h-286l-55 -162h-124v10zM341 577l-106 -312h216l-106 312h-4z" />
    <glyph glyph-name="B" unicode="B" horiz-adv-x="666" 
d="M401 0h-314v700h304c124 0 207 -69 207 -182c0 -67 -27 -114 -80 -143v-4c71 -30 106 -86 106 -169c0 -127 -84 -202 -223 -202zM203 596v-183h166c71 0 110 33 110 96c0 55 -36 87 -103 87h-173zM203 311v-206h181c76 0 120 39 120 103s-41 103 -120 103h-181z" />
    <glyph glyph-name="C" unicode="C" horiz-adv-x="709" 
d="M369 -9c-103 0 -182 33 -238 98c-56 66 -84 153 -84 260c0 108 28 195 84 261s135 99 238 99c85 0 153 -24 205 -71s81 -109 88 -185h-120c-9 89 -69 148 -173 148c-68 0 -119 -23 -152 -70c-33 -46 -50 -107 -50 -182c0 -151 66 -251 202 -251c101 0 158 54 174 142h119
c-9 -74 -39 -134 -90 -180s-119 -69 -203 -69z" />
    <glyph glyph-name="D" unicode="D" horiz-adv-x="704" 
d="M323 0h-236v700h236c101 0 182 -32 243 -96s91 -149 91 -254c0 -101 -30 -185 -89 -251s-141 -99 -245 -99zM200 594v-489h114c145 0 223 94 223 245c0 149 -78 244 -223 244h-114z" />
    <glyph glyph-name="E" unicode="E" horiz-adv-x="610" 
d="M559 0h-472v700h472v-106h-355v-180h324v-106h-324v-203h355v-105z" />
    <glyph glyph-name="F" unicode="F" horiz-adv-x="604" 
d="M204 0h-117v700h465v-106h-348v-198h316v-106h-316v-290z" />
    <glyph glyph-name="G" unicode="G" horiz-adv-x="718" 
d="M367 -9c-103 0 -182 33 -237 98s-83 152 -83 259c0 109 28 196 83 262c56 66 135 99 237 99c85 0 153 -23 205 -68c53 -45 83 -103 90 -174h-120c-11 80 -70 134 -175 134c-136 0 -200 -101 -200 -253c0 -151 64 -250 200 -250c115 0 179 70 186 170h-166v104h284v-67
c0 -95 -28 -172 -83 -229s-128 -85 -221 -85z" />
    <glyph glyph-name="H" unicode="H" horiz-adv-x="735" 
d="M531 415v285h117v-700h-117v308h-327v-308h-117v700h117v-285h327z" />
    <glyph glyph-name="I" unicode="I" horiz-adv-x="292" 
d="M205 0h-118v700h118v-700z" />
    <glyph glyph-name="J" unicode="J" horiz-adv-x="538" 
d="M239 -9c-68 0 -121 20 -160 59c-39 40 -58 91 -58 154h116c1 -64 36 -104 104 -104s102 42 102 110v490h118v-490c0 -132 -83 -219 -222 -219z" />
    <glyph glyph-name="K" unicode="K" horiz-adv-x="650" 
d="M629 690l-308 -323l319 -357v-10h-139l-297 333v-333h-117v700h117v-301l287 301h138v-10z" />
    <glyph glyph-name="L" unicode="L" horiz-adv-x="552" 
d="M534 0h-447v700h117v-594h330v-106z" />
    <glyph glyph-name="M" unicode="M" horiz-adv-x="880" 
d="M200 0h-113v700h133l219 -382h4l219 382h131v-700h-113v514h-4l-231 -396h-10l-231 399h-4v-517z" />
    <glyph glyph-name="N" unicode="N" horiz-adv-x="743" 
d="M202 0h-115v700h134l315 -514h4v514h116v-700h-135l-315 511h-4v-511z" />
    <glyph glyph-name="O" unicode="O" horiz-adv-x="740" 
d="M370 -9c-105 0 -186 33 -241 100s-82 154 -82 259c0 106 27 192 82 259s136 100 241 100s185 -33 240 -100s83 -153 83 -259c0 -105 -28 -192 -83 -259s-135 -100 -240 -100zM370 601c-69 0 -121 -23 -154 -69s-49 -107 -49 -182c0 -151 66 -251 203 -251
s203 100 203 251s-66 251 -203 251z" />
    <glyph glyph-name="P" unicode="P" horiz-adv-x="649" 
d="M204 0h-117v700h284c71 0 127 -21 168 -63c42 -42 63 -96 63 -162c0 -68 -21 -123 -63 -166s-98 -64 -168 -64h-167v-245zM204 595v-244h147c84 0 131 44 131 124c0 76 -50 120 -131 120h-147z" />
    <glyph glyph-name="Q" unicode="Q" horiz-adv-x="740" 
d="M693 350c0 -121 -34 -214 -103 -280l94 -133v-10h-121l-62 87c-39 -15 -82 -23 -131 -23c-105 0 -186 33 -241 100s-82 154 -82 259c0 106 27 192 82 259s136 100 241 100s185 -33 240 -100s83 -153 83 -259zM370 99c24 0 46 3 65 9l-88 125v10h121l54 -77
c34 45 51 106 51 184c0 151 -66 251 -203 251c-69 0 -121 -23 -154 -69s-49 -107 -49 -182c0 -151 66 -251 203 -251z" />
    <glyph glyph-name="R" unicode="R" horiz-adv-x="670" 
d="M467 278l179 -268v-10h-133l-169 264h-140v-264h-117v700h296c70 0 126 -21 167 -62s62 -93 62 -154c0 -100 -56 -177 -145 -206zM376 594h-172v-224h172c76 0 115 44 115 113c0 68 -40 111 -115 111z" />
    <glyph glyph-name="S" unicode="S" horiz-adv-x="632" 
d="M315 -9c-173 0 -271 89 -278 232h119c5 -81 63 -127 159 -127c103 0 154 33 154 100c0 53 -35 81 -108 97l-102 22c-129 28 -199 86 -199 198c0 59 23 107 69 142c46 36 108 54 187 54c77 0 140 -20 188 -60c49 -40 73 -92 74 -157h-119c-4 68 -52 111 -145 111
c-89 0 -133 -30 -133 -90c0 -43 34 -72 102 -87l95 -20c141 -29 212 -99 212 -208c0 -128 -96 -207 -275 -207z" />
    <glyph glyph-name="T" unicode="T" horiz-adv-x="592" 
d="M355 0h-118v594h-211v106h540v-106h-211v-594z" />
    <glyph glyph-name="U" unicode="U" horiz-adv-x="714" 
d="M356 -9c-84 0 -152 23 -203 70s-76 114 -76 199v440h117v-438c0 -101 51 -165 162 -165c112 0 163 64 163 165v438h118v-440c0 -85 -26 -152 -77 -199s-119 -70 -204 -70z" />
    <glyph glyph-name="V" unicode="V" horiz-adv-x="682" 
d="M407 0h-132l-254 690v10h129l190 -553h4l186 553h131v-10z" />
    <glyph glyph-name="W" unicode="W" horiz-adv-x="924" 
d="M325 0h-137l-167 690v10h121l117 -529h4l136 529h126l138 -529h4l115 529h121v-10l-168 -690h-137l-133 518h-4z" />
    <glyph glyph-name="X" unicode="X" horiz-adv-x="661" 
d="M156 0h-138v10l230 340v4l-222 336v10h137l168 -267h4l169 267h135v-10l-220 -336v-4l224 -340v-10h-138l-172 264h-4z" />
    <glyph glyph-name="Y" unicode="Y" horiz-adv-x="670" 
d="M395 0h-118v286l-256 404v10h135l179 -298h4l176 298h134v-10l-254 -403v-287z" />
    <glyph glyph-name="Z" unicode="Z" horiz-adv-x="597" 
d="M561 0h-525v103l373 486v4h-364v107h510v-105l-372 -485v-4h378v-106z" />
    <glyph glyph-name="bracketleft" unicode="[" horiz-adv-x="342" 
d="M267 -167h-226v926h224v-88h-126v-750h128v-88z" />
    <glyph glyph-name="backslash" unicode="\" horiz-adv-x="418" 
d="M403 -133h-106l-282 860v10h107l281 -860v-10z" />
    <glyph glyph-name="bracketright" unicode="]" horiz-adv-x="342" 
d="M300 -167h-225v88h128v750h-126v88h223v-926z" />
    <glyph glyph-name="asciicircum" unicode="^" horiz-adv-x="588" 
d="M153 310h-109v10l197 380h106l197 -380v-10h-109l-139 280h-4z" />
    <glyph glyph-name="underscore" unicode="_" horiz-adv-x="574" 
d="M527 -119h-480v92h480v-92z" />
    <glyph glyph-name="grave" unicode="`" horiz-adv-x="272" 
d="M239 583h-90l-116 140v10h134l72 -140v-10z" />
    <glyph glyph-name="a" unicode="a" horiz-adv-x="546" 
d="M219 -9c-55 0 -99 15 -132 45c-32 31 -48 69 -48 116c0 96 70 160 211 160h120v31c0 52 -34 88 -102 88c-60 0 -96 -33 -97 -77h-108c0 100 79 171 207 171c66 0 118 -17 156 -51s57 -77 57 -130v-344h-100l-8 61h-4c-32 -47 -83 -70 -152 -70zM245 82
c75 0 125 50 125 113v35h-115c-68 0 -102 -25 -102 -74c0 -44 32 -74 92 -74z" />
    <glyph glyph-name="b" unicode="b" horiz-adv-x="593" 
d="M191 62h-4l-13 -62h-101v740h114v-286h4c31 47 80 71 147 71c68 0 121 -25 158 -74c38 -49 57 -113 57 -192c0 -81 -19 -146 -58 -195c-38 -49 -90 -73 -157 -73s-116 24 -147 71zM310 92c88 0 128 68 128 167c0 97 -40 165 -128 165c-85 0 -127 -69 -127 -165
c0 -97 42 -167 127 -167z" />
    <glyph glyph-name="c" unicode="c" horiz-adv-x="546" 
d="M285 -9c-78 0 -139 24 -182 72c-43 49 -64 114 -64 195c0 163 88 267 243 267c139 0 216 -80 224 -197h-114c-5 59 -46 96 -110 96c-85 0 -127 -62 -127 -166c0 -105 42 -167 127 -167c64 0 104 36 111 96h114c-9 -119 -86 -196 -222 -196z" />
    <glyph glyph-name="d" unicode="d" 
d="M254 -9c-66 0 -118 24 -157 73c-38 49 -57 114 -58 195c1 79 20 143 57 192c38 49 91 74 158 74s117 -24 148 -71h4v286h114v-740h-101l-13 62h-4c-31 -47 -81 -71 -148 -71zM282 92c85 0 128 70 128 167s-41 165 -128 165c-88 0 -127 -68 -127 -165
c0 -99 39 -167 127 -167z" />
    <glyph glyph-name="e" unicode="e" horiz-adv-x="554" 
d="M283 -9c-76 0 -136 25 -179 75s-65 114 -65 192s21 142 62 192c42 50 102 75 180 75c73 0 130 -24 171 -71s62 -107 62 -180v-48h-357c0 -85 45 -139 126 -139c62 0 100 23 113 70h111c-7 -48 -32 -88 -73 -119s-91 -47 -151 -47zM158 307h239c-1 72 -41 121 -116 121
c-79 0 -120 -49 -123 -121z" />
    <glyph glyph-name="f" unicode="f" horiz-adv-x="395" 
d="M231 0h-114v420h-91v96h91v63c0 104 72 171 179 171h64v-98h-50c-53 0 -79 -24 -79 -73v-63h124v-96h-124v-420z" />
    <glyph glyph-name="g" unicode="g" 
d="M281 -238c-67 0 -121 17 -163 51c-41 33 -63 77 -64 131h111c4 -47 47 -84 116 -84c81 0 125 46 125 114v88h-4c-31 -47 -81 -71 -148 -71s-120 25 -158 74c-37 49 -56 114 -57 193c1 81 20 146 58 194c39 49 91 73 157 73c67 0 117 -24 148 -71h4l13 62h101v-544
c0 -62 -22 -112 -66 -151c-43 -39 -101 -59 -173 -59zM282 92c87 0 128 69 128 166c0 96 -43 166 -128 166c-88 0 -127 -67 -127 -166s39 -166 127 -166z" />
    <glyph glyph-name="h" unicode="h" horiz-adv-x="591" 
d="M187 0h-114v740h114v-291h4c32 51 82 76 150 76c116 0 187 -72 187 -188v-337h-114v309c0 75 -35 113 -106 113c-72 0 -121 -53 -121 -138v-284z" />
    <glyph glyph-name="i" unicode="i" horiz-adv-x="250" 
d="M192 603h-124v123h124v-123zM187 0h-114v516h114v-516z" />
    <glyph glyph-name="j" unicode="j" horiz-adv-x="259" 
d="M202 603h-124v123h124v-123zM31 -238h-52v104h38c44 0 66 24 66 73v577h114v-593c0 -105 -61 -161 -166 -161z" />
    <glyph glyph-name="k" unicode="k" horiz-adv-x="535" 
d="M511 506l-209 -224l217 -272v-10h-135l-201 254v-254h-110v740h110v-434l194 210h134v-10z" />
    <glyph glyph-name="l" unicode="l" horiz-adv-x="250" 
d="M187 0h-114v740h114v-740z" />
    <glyph glyph-name="m" unicode="m" horiz-adv-x="902" 
d="M655 525c113 0 184 -72 184 -188v-337h-114v309c0 75 -33 113 -100 113c-69 0 -110 -52 -110 -137v-285h-113v309c0 75 -33 113 -100 113c-69 0 -115 -52 -115 -137v-285h-114v516h101l9 -67h4c32 51 82 76 149 76c73 0 125 -27 155 -81h3c33 54 87 81 161 81z" />
    <glyph glyph-name="n" unicode="n" horiz-adv-x="587" 
d="M187 0h-114v516h101l9 -67h4c32 51 82 76 151 76c115 0 186 -72 186 -188v-337h-114v309c0 75 -35 113 -105 113c-72 0 -118 -52 -118 -137v-285z" />
    <glyph glyph-name="o" unicode="o" horiz-adv-x="566" 
d="M283 -9c-79 0 -140 25 -182 74c-41 49 -62 114 -62 193s21 143 63 192c43 50 103 75 181 75s138 -25 180 -75c43 -49 64 -113 64 -192s-21 -144 -63 -193s-102 -74 -181 -74zM283 92c85 0 128 55 128 166c0 53 -11 93 -32 122s-53 44 -96 44s-75 -15 -96 -44
s-32 -69 -32 -122c0 -105 44 -166 128 -166z" />
    <glyph glyph-name="p" unicode="p" horiz-adv-x="593" 
d="M187 -229h-114v745h101l13 -62h4c31 47 80 71 147 71c66 0 118 -24 157 -73c39 -48 58 -113 58 -194c0 -79 -19 -144 -57 -193c-37 -49 -90 -74 -158 -74c-67 0 -116 24 -147 71h-4v-291zM310 92c88 0 128 67 128 166s-40 166 -128 166c-85 0 -127 -69 -127 -166
s42 -166 127 -166z" />
    <glyph glyph-name="q" unicode="q" 
d="M520 -229h-114v291h-4c-31 -47 -81 -71 -148 -71s-120 25 -158 74c-37 49 -56 114 -57 193c1 81 20 146 58 194c39 49 91 73 157 73c67 0 117 -24 148 -71h4l13 62h101v-745zM282 92c87 0 128 69 128 166c0 96 -43 166 -128 166c-88 0 -127 -67 -127 -166
s39 -166 127 -166z" />
    <glyph glyph-name="r" unicode="r" horiz-adv-x="390" 
d="M183 0h-110v516h96l10 -82h4c21 55 70 89 134 89h42v-106h-44c-87 0 -132 -60 -132 -165v-252z" />
    <glyph glyph-name="s" unicode="s" horiz-adv-x="511" 
d="M258 -9c-136 0 -216 70 -219 181h114c0 -51 40 -83 105 -83c66 0 99 19 99 58c0 30 -23 50 -68 59l-91 17c-95 19 -143 70 -143 152c0 87 76 150 199 150c124 0 206 -69 206 -169h-112c-3 48 -37 77 -96 77c-52 0 -86 -22 -86 -59c0 -30 23 -49 68 -56l88 -17
c99 -21 150 -62 150 -154c0 -49 -20 -87 -61 -115c-40 -27 -91 -41 -153 -41z" />
    <glyph glyph-name="t" unicode="t" horiz-adv-x="402" 
d="M357 0h-88c-102 0 -153 50 -153 150v269h-85v97h90v137h109v-137h125v-97h-125v-249c0 -49 20 -70 67 -70h60v-100z" />
    <glyph glyph-name="u" unicode="u" horiz-adv-x="580" 
d="M253 -8c-115 0 -186 71 -186 188v336h114v-308c0 -76 35 -114 105 -114c72 0 118 52 118 137v285h114v-516h-101l-9 68h-4c-31 -51 -82 -76 -151 -76z" />
    <glyph glyph-name="v" unicode="v" horiz-adv-x="535" 
d="M336 0h-134l-186 506v10h117l135 -398h4l131 398h116v-10z" />
    <glyph glyph-name="w" unicode="w" horiz-adv-x="786" 
d="M290 0h-137l-137 506v10h114l92 -380h4l99 380h137l99 -380h4l92 380h113v-10l-137 -506h-137l-99 380h-4z" />
    <glyph glyph-name="x" unicode="x" horiz-adv-x="518" 
d="M136 0h-124v10l171 250l-165 246v10h123l117 -183h4l116 183h123v-10l-165 -245l170 -251v-10h-124l-120 188h-4z" />
    <glyph glyph-name="y" unicode="y" horiz-adv-x="544" 
d="M16 506v10h119l134 -388h4l134 388h121v-10l-274 -735h-120v10l82 221l-12 2z" />
    <glyph glyph-name="z" unicode="z" horiz-adv-x="502" 
d="M456 0h-410v95l270 320v4h-269v97h407v-96l-269 -319v-4h271v-97z" />
    <glyph glyph-name="braceleft" unicode="{" horiz-adv-x="430" 
d="M146 298v-4c57 -8 86 -44 86 -108v-172c0 -64 24 -92 87 -92h36v-89h-55c-108 0 -166 58 -166 163v161c0 58 -31 88 -93 90v98c62 2 93 32 93 90v161c0 105 58 163 166 163h55v-89h-36c-63 0 -87 -28 -87 -92v-172c0 -64 -29 -100 -86 -108z" />
    <glyph glyph-name="bar" unicode="|" horiz-adv-x="274" 
d="M187 -138h-100v898h100v-898z" />
    <glyph glyph-name="braceright" unicode="}" horiz-adv-x="430" 
d="M296 596v-161c0 -58 31 -88 93 -90v-98c-62 -2 -93 -32 -93 -90v-161c0 -105 -58 -163 -166 -163h-55v89h36c63 0 87 28 87 92v172c0 64 29 100 86 108v4c-57 8 -86 44 -86 108v172c0 64 -24 92 -87 92h-36v89h55c108 0 166 -58 166 -163z" />
    <glyph glyph-name="asciitilde" unicode="~" horiz-adv-x="556" 
d="M376 208c-32 0 -64 9 -97 27l-46 25c-19 10 -37 15 -54 15c-37 0 -64 -19 -81 -57l-66 46c30 72 79 108 147 108c32 0 63 -9 94 -26l46 -25c19 -11 38 -16 57 -16c37 0 65 19 82 57l66 -46c-30 -72 -79 -108 -148 -108z" />
    <glyph glyph-name="uni00A0" unicode="&#xa0;" horiz-adv-x="291" 
 />
    <glyph glyph-name="exclamdown" unicode="&#xa1;" horiz-adv-x="266" 
d="M199 386h-132v130h132v-130zM196 -184h-124v96l21 382h77l26 -382v-96z" />
    <glyph glyph-name="cent" unicode="&#xa2;" horiz-adv-x="546" 
d="M393 277h114c-8 -108 -72 -182 -185 -194v-83h-81v84c-129 17 -202 117 -202 264c0 148 73 247 202 264v88h81v-87c113 -15 177 -91 184 -195h-114c-4 47 -27 77 -70 90v-322c42 13 66 44 71 91zM155 348c0 -91 29 -144 86 -161v321c-57 -17 -86 -71 -86 -160z" />
    <glyph glyph-name="sterling" unicode="&#xa3;" horiz-adv-x="605" 
d="M574 0h-537v102c49 1 74 28 74 80v113h-75v99h75v112c0 57 20 106 61 146s95 60 164 60s123 -21 163 -62s60 -90 60 -147h-111c0 61 -41 113 -114 113c-71 0 -113 -46 -113 -110v-112h215v-99h-215v-117c0 -38 -11 -63 -33 -75v-4h386v-99z" />
    <glyph glyph-name="currency" unicode="&#xa4;" horiz-adv-x="579" 
d="M176 59l-70 -73l-69 67l71 74c-22 35 -33 74 -33 116c0 43 12 83 35 119l-73 75l69 68l73 -76c35 22 73 33 113 33c39 0 76 -10 110 -30l70 73l69 -68l-68 -71c25 -39 38 -80 38 -123c0 -45 -12 -85 -37 -120l67 -70l-68 -67l-68 70c-34 -21 -72 -31 -113 -31
s-79 11 -116 34zM205 153c23 -23 52 -35 87 -35s63 12 86 35c23 24 35 54 35 90s-12 66 -35 89s-51 35 -86 35s-64 -12 -87 -35s-35 -53 -35 -89s12 -66 35 -90z" />
    <glyph glyph-name="yen" unicode="&#xa5;" horiz-adv-x="670" 
d="M515 700h134v-10l-188 -300h110v-94h-168l-6 -9v-71h174v-94h-174v-122h-118v122h-180v94h180v70l-6 10h-174v94h114l-192 300v10h140l176 -298h4z" />
    <glyph glyph-name="brokenbar" unicode="&#xa6;" horiz-adv-x="274" 
d="M187 402h-100v358h100v-358zM187 -138h-100v358h100v-358z" />
    <glyph glyph-name="section" unicode="&#xa7;" 
d="M89 -60h100c3 -57 37 -92 96 -92c57 0 90 29 90 76c0 29 -15 55 -45 78l-189 145c-59 45 -82 87 -82 150c0 59 29 104 88 137c-27 31 -41 68 -41 109c0 49 17 88 52 119s82 47 140 47c117 0 193 -76 196 -185h-100c-3 57 -39 92 -96 92c-56 0 -90 -31 -90 -76
c0 -29 15 -55 45 -78l177 -135c65 -49 94 -95 94 -160c0 -57 -29 -102 -88 -137c27 -31 41 -68 41 -109c0 -97 -75 -166 -192 -166s-193 76 -196 185zM199 224l172 -134c35 15 52 39 52 72s-15 60 -45 83l-166 129c-35 -16 -52 -41 -52 -75c0 -31 13 -56 39 -75z" />
    <glyph glyph-name="dieresis" unicode="&#xa8;" horiz-adv-x="413" 
d="M171 610h-114v114h114v-114zM356 610h-114v114h114v-114z" />
    <glyph glyph-name="copyright" unicode="&#xa9;" horiz-adv-x="820" 
d="M760 350c-1 -104 -34 -190 -99 -258c-65 -67 -148 -101 -251 -101s-187 34 -252 101c-65 68 -97 154 -98 258c1 104 33 190 98 257c65 68 149 102 252 102s186 -34 251 -102c65 -67 98 -153 99 -257zM680 350c-1 86 -25 154 -73 205s-114 77 -197 77s-149 -26 -197 -77
s-72 -119 -73 -205c1 -86 25 -155 73 -206s114 -76 197 -76s149 25 197 76s72 120 73 206zM412 216c53 0 83 25 89 74h76c-8 -85 -65 -143 -164 -143c-115 0 -179 76 -179 200s65 201 178 201c101 0 159 -62 163 -145h-76c-4 49 -38 75 -87 75c-67 0 -101 -44 -101 -131
s34 -131 101 -131z" />
    <glyph glyph-name="ordfeminine" unicode="&#xaa;" horiz-adv-x="374" 
d="M160 296c-73 0 -121 45 -121 108s49 106 141 106c27 0 53 -3 77 -10v27c0 37 -22 56 -65 56c-40 0 -63 -20 -63 -49h-74c0 67 54 115 138 115c88 0 142 -52 142 -121v-226h-69l-6 38h-3c-21 -29 -53 -44 -97 -44zM176 360c48 0 81 30 81 71v10c-25 8 -49 12 -72 12
c-45 0 -67 -16 -67 -47s19 -46 58 -46z" />
    <glyph glyph-name="guillemotleft" unicode="&#xab;" horiz-adv-x="593" 
d="M303 66h-106l-166 212v10l166 212h106v-10l-140 -207l140 -207v-10zM546 66h-106l-166 212v10l166 212h106v-10l-140 -207l140 -207v-10z" />
    <glyph glyph-name="uni00AD" unicode="&#xad;" horiz-adv-x="466" 
d="M386 241h-306v104h306v-104z" />
    <glyph glyph-name="registered" unicode="&#xae;" horiz-adv-x="491" 
d="M402 347c-41 -41 -93 -62 -156 -62s-115 21 -156 62c-41 42 -61 94 -61 157s20 115 61 156c41 42 93 63 156 63s115 -21 156 -63c41 -41 61 -93 61 -156s-20 -115 -61 -157zM246 343c95 0 156 60 156 161s-61 161 -156 161c-96 0 -157 -60 -157 -161s61 -161 157 -161z
M217 397h-52v208h96c45 0 76 -29 76 -68c0 -31 -12 -53 -37 -65l46 -69v-6h-54l-42 67h-33v-67zM217 560v-50h39c18 0 27 8 27 25s-9 25 -27 25h-39z" />
    <glyph glyph-name="overscore" unicode="&#xaf;" horiz-adv-x="347" 
d="M314 613h-281v94h281v-94z" />
    <glyph glyph-name="degree" unicode="&#xb0;" horiz-adv-x="443" 
d="M221 367c-50 0 -92 16 -125 49s-50 75 -50 124s17 90 50 123s75 50 125 50c51 0 93 -17 126 -50s50 -74 50 -123s-17 -91 -50 -124s-75 -49 -126 -49zM221 446c56 0 90 41 90 94c0 55 -34 94 -90 94c-55 0 -89 -41 -89 -94s34 -94 89 -94z" />
    <glyph glyph-name="plusminus" unicode="&#xb1;" horiz-adv-x="485" 
d="M297 201h-106v155h-186v97h186v154h106v-154h183v-97h-183v-155zM480 41h-475v98h475v-98z" />
    <glyph glyph-name="uni00B2" unicode="&#xb2;" horiz-adv-x="406" 
d="M363 251h-318v73l155 145c51 48 66 71 66 106c0 33 -24 58 -65 58c-44 0 -69 -27 -69 -66h-88c0 42 14 77 43 104c29 28 67 42 114 41c47 0 85 -13 112 -40c28 -26 42 -57 42 -94c0 -52 -22 -90 -82 -145l-108 -99v-3h198v-80z" />
    <glyph glyph-name="uni00B3" unicode="&#xb3;" horiz-adv-x="424" 
d="M213 242c-103 0 -169 58 -169 147h85c1 -39 31 -68 84 -68c51 0 77 25 77 64c0 37 -29 61 -82 61h-47v78h45c47 0 71 19 71 57c0 31 -25 53 -68 53c-47 0 -71 -22 -72 -67h-87c3 88 62 145 161 145c45 1 83 -11 112 -35c29 -23 44 -54 44 -92c0 -45 -19 -76 -56 -94v-3
c41 -16 69 -54 69 -103c0 -85 -62 -143 -167 -143z" />
    <glyph glyph-name="acute" unicode="&#xb4;" horiz-adv-x="272" 
d="M123 583h-90v10l72 140h134v-10z" />
    <glyph glyph-name="paragraph" unicode="&#xb6;" horiz-adv-x="627" 
d="M316 -104h-97v457c-52 0 -96 18 -133 55s-55 82 -55 134s18 96 55 133s81 55 133 55h346v-86h-64v-748h-97v748h-88v-748z" />
    <glyph glyph-name="middot" unicode="&#xb7;" horiz-adv-x="241" 
d="M186 235h-132v130h132v-130z" />
    <glyph glyph-name="cedilla" unicode="&#xb8;" horiz-adv-x="317" 
d="M154 -222c-69 0 -121 35 -121 95h73c0 -19 19 -32 47 -32c27 0 47 11 47 32c0 19 -16 31 -44 31h-32l-25 31l40 79h84l-36 -56c59 -3 97 -37 97 -86c0 -55 -46 -94 -130 -94z" />
    <glyph glyph-name="uni00B9" unicode="&#xb9;" horiz-adv-x="291" 
d="M247 248h-87v356h-4l-104 -79h-8v88l115 87h88v-452z" />
    <glyph glyph-name="ordmasculine" unicode="&#xba;" horiz-adv-x="404" 
d="M202 296c-104 0 -163 72 -163 176s60 177 163 177c104 0 163 -73 163 -177s-58 -176 -163 -176zM281 472c0 70 -26 105 -79 105s-79 -35 -79 -105c0 -69 26 -104 79 -104s79 35 79 104z" />
    <glyph glyph-name="guillemotright" unicode="&#xbb;" horiz-adv-x="593" 
d="M320 278l-166 -212h-106v10l140 207l-140 207v10h106l166 -212v-10zM562 278l-166 -212h-106v10l140 207l-140 207v10h106l166 -212v-10z" />
    <glyph glyph-name="onequarter" unicode="&#xbc;" horiz-adv-x="901" 
d="M247 248h-87v356h-4l-104 -79h-8v88l115 87h88v-452zM268 0h-96v10l434 690h94v-10zM800 0h-87v89h-207v87l179 276h115v-283h57v-80h-57v-89zM594 173v-4h119v183h-4z" />
    <glyph glyph-name="onehalf" unicode="&#xbd;" horiz-adv-x="936" 
d="M247 248h-87v356h-4l-104 -79h-8v88l115 87h88v-452zM268 0h-96v10l434 690h94v-10zM893 0h-319v73l156 146c52 48 66 70 66 105c0 33 -25 58 -66 58c-43 0 -68 -29 -68 -66h-89c0 84 64 145 157 145c96 0 155 -59 155 -134c0 -51 -21 -89 -82 -145l-108 -99v-3h198v-80z
" />
    <glyph glyph-name="threequarters" unicode="&#xbe;" horiz-adv-x="991" 
d="M213 242c-103 0 -169 58 -169 147h85c1 -39 31 -68 84 -68c51 0 77 25 77 64c0 37 -29 61 -82 61h-47v78h45c47 0 71 19 71 57c0 31 -25 53 -68 53c-47 0 -71 -22 -72 -67h-87c3 88 62 145 161 145c45 1 83 -11 112 -35c29 -23 44 -54 44 -92c0 -45 -19 -76 -56 -94v-3
c41 -16 69 -54 69 -103c0 -85 -62 -143 -167 -143zM358 0h-96v10l434 690h94v-10zM890 0h-87v89h-207v87l179 276h115v-283h57v-80h-57v-89zM684 173v-4h119v183h-4z" />
    <glyph glyph-name="questiondown" unicode="&#xbf;" horiz-adv-x="543" 
d="M350 386h-132v130h132v-130zM269 -193c-67 0 -120 17 -161 52s-61 79 -61 134c0 63 25 114 76 153l42 33c49 39 64 56 64 100v16h110v-16c0 -39 -7 -70 -21 -93c-13 -22 -36 -46 -69 -71l-32 -25c-35 -27 -52 -58 -52 -92c0 -52 36 -91 104 -91c73 0 111 41 111 110h116
c0 -61 -20 -111 -59 -150c-39 -40 -95 -60 -168 -60z" />
    <glyph glyph-name="Agrave" unicode="&#xc0;" horiz-adv-x="691" 
d="M413 777v-10h-90l-116 140v10h134zM271 700h147l251 -690v-10h-128l-55 162h-286l-55 -162h-124v10zM341 577l-106 -312h216l-106 312h-4z" />
    <glyph glyph-name="Aacute" unicode="&#xc1;" horiz-adv-x="691" 
d="M491 917v-10l-116 -140h-90v10l72 140h134zM271 700h147l251 -690v-10h-128l-55 162h-286l-55 -162h-124v10zM341 577l-106 -312h216l-106 312h-4z" />
    <glyph glyph-name="Acircumflex" unicode="&#xc2;" horiz-adv-x="691" 
d="M349 838h-4l-65 -69h-98v10l98 136h134l98 -136v-10h-98zM271 700h147l251 -690v-10h-128l-55 162h-286l-55 -162h-124v10zM341 577l-106 -312h216l-106 312h-4z" />
    <glyph glyph-name="Atilde" unicode="&#xc3;" horiz-adv-x="691" 
d="M274 819c-19 0 -33 -16 -33 -41h-73v15c0 71 41 111 102 111c22 0 45 -7 68 -20l15 -9c16 -9 29 -13 38 -13c21 0 32 13 32 40h72v-15c0 -72 -37 -111 -101 -111c-21 0 -44 7 -67 20l-14 9c-15 9 -28 14 -39 14zM271 700h147l251 -690v-10h-128l-55 162h-286l-55 -162
h-124v10zM341 577l-106 -312h216l-106 312h-4z" />
    <glyph glyph-name="Adieresis" unicode="&#xc4;" horiz-adv-x="691" 
d="M198 908h114v-114h-114v114zM383 908h114v-114h-114v114zM271 700h147l251 -690v-10h-128l-55 162h-286l-55 -162h-124v10zM341 577l-106 -312h216l-106 312h-4z" />
    <glyph glyph-name="Aring" unicode="&#xc5;" horiz-adv-x="691" 
d="M343 754c-65 0 -113 46 -113 111s48 112 113 112c68 0 115 -45 115 -112c0 -65 -47 -111 -115 -111zM342 911c-59 5 -59 -97 0 -91c64 -6 62 96 0 91zM271 700h147l251 -690v-10h-128l-55 162h-286l-55 -162h-124v10zM341 577l-106 -312h216l-106 312h-4z" />
    <glyph glyph-name="AE" unicode="&#xc6;" horiz-adv-x="913" 
d="M145 0h-124v10l250 690h590v-106h-404l66 -180h307v-106h-269l74 -203h226v-105h-320l-55 162h-286zM341 577l-107 -312h218l-107 312h-4z" />
    <glyph glyph-name="Ccedilla" unicode="&#xc7;" horiz-adv-x="709" 
d="M369 98c101 0 158 54 174 142h119c-8 -69 -35 -127 -81 -172s-106 -70 -181 -76l-22 -34c59 -3 97 -37 97 -86c0 -55 -46 -94 -130 -94c-69 0 -121 35 -121 95h73c0 -19 19 -32 47 -32c27 0 47 11 47 32c0 19 -16 31 -44 31h-32l-25 31l30 59c-88 11 -156 48 -203 112
s-70 145 -70 243c0 108 28 195 84 261s135 99 238 99c85 0 153 -24 205 -71s81 -109 88 -185h-120c-9 89 -69 148 -173 148c-68 0 -119 -23 -152 -70c-33 -46 -50 -107 -50 -182c0 -151 66 -251 202 -251z" />
    <glyph glyph-name="Egrave" unicode="&#xc8;" horiz-adv-x="610" 
d="M401 767h-90l-116 140v10h134l72 -140v-10zM559 0h-472v700h472v-106h-355v-180h324v-106h-324v-203h355v-105z" />
    <glyph glyph-name="Eacute" unicode="&#xc9;" horiz-adv-x="610" 
d="M363 767h-90v10l72 140h134v-10zM559 0h-472v700h472v-106h-355v-180h324v-106h-324v-203h355v-105z" />
    <glyph glyph-name="Ecircumflex" unicode="&#xca;" horiz-adv-x="610" 
d="M268 769h-98v10l98 136h134l98 -136v-10h-98l-65 69h-4zM559 0h-472v700h472v-106h-355v-180h324v-106h-324v-203h355v-105z" />
    <glyph glyph-name="Edieresis" unicode="&#xcb;" horiz-adv-x="610" 
d="M300 794h-114v114h114v-114zM485 794h-114v114h114v-114zM559 0h-472v700h472v-106h-355v-180h324v-106h-324v-203h355v-105z" />
    <glyph glyph-name="Igrave" unicode="&#xcc;" horiz-adv-x="292" 
d="M216 767h-90l-116 140v10h134l72 -140v-10zM205 0h-118v700h118v-700z" />
    <glyph glyph-name="Iacute" unicode="&#xcd;" horiz-adv-x="292" 
d="M178 767h-90v10l72 140h134v-10zM205 0h-118v700h118v-700z" />
    <glyph glyph-name="Icircumflex" unicode="&#xce;" horiz-adv-x="292" 
d="M83 769h-98v10l98 136h134l98 -136v-10h-98l-65 69h-4zM205 0h-118v700h118v-700z" />
    <glyph glyph-name="Idieresis" unicode="&#xcf;" horiz-adv-x="292" 
d="M115 794h-114v114h114v-114zM300 794h-114v114h114v-114zM205 0h-118v700h118v-700z" />
    <glyph glyph-name="Eth" unicode="&#xd0;" horiz-adv-x="751" 
d="M134 700h236c101 0 182 -32 243 -96s91 -149 91 -254c0 -101 -30 -185 -89 -251s-141 -99 -245 -99h-236v311h-71v102h71v287zM247 105h114c145 0 223 94 223 245c0 149 -78 244 -223 244h-114v-181h173v-102h-173v-206z" />
    <glyph glyph-name="Ntilde" unicode="&#xd1;" horiz-adv-x="743" 
d="M440 776c-21 0 -44 7 -67 20l-14 9c-15 9 -28 14 -39 14c-19 0 -33 -16 -33 -41h-73v15c0 71 41 111 102 111c22 0 45 -7 68 -20l15 -9c16 -9 29 -13 38 -13c21 0 32 13 32 40h72v-15c0 -72 -37 -111 -101 -111zM202 0h-115v700h134l315 -514h4v514h116v-700h-135
l-315 511h-4v-511z" />
    <glyph glyph-name="Ograve" unicode="&#xd2;" horiz-adv-x="740" 
d="M442 767h-90l-116 140v10h134l72 -140v-10zM370 -9c-105 0 -186 33 -241 100s-82 154 -82 259c0 106 27 192 82 259s136 100 241 100s185 -33 240 -100s83 -153 83 -259c0 -105 -28 -192 -83 -259s-135 -100 -240 -100zM370 601c-69 0 -121 -23 -154 -69
s-49 -107 -49 -182c0 -151 66 -251 203 -251s203 100 203 251s-66 251 -203 251z" />
    <glyph glyph-name="Oacute" unicode="&#xd3;" horiz-adv-x="740" 
d="M404 767h-90v10l72 140h134v-10zM370 -9c-105 0 -186 33 -241 100s-82 154 -82 259c0 106 27 192 82 259s136 100 241 100s185 -33 240 -100s83 -153 83 -259c0 -105 -28 -192 -83 -259s-135 -100 -240 -100zM370 601c-69 0 -121 -23 -154 -69s-49 -107 -49 -182
c0 -151 66 -251 203 -251s203 100 203 251s-66 251 -203 251z" />
    <glyph glyph-name="Ocircumflex" unicode="&#xd4;" horiz-adv-x="740" 
d="M309 769h-98v10l98 136h134l98 -136v-10h-98l-65 69h-4zM370 -9c-105 0 -186 33 -241 100s-82 154 -82 259c0 106 27 192 82 259s136 100 241 100s185 -33 240 -100s83 -153 83 -259c0 -105 -28 -192 -83 -259s-135 -100 -240 -100zM370 601c-69 0 -121 -23 -154 -69
s-49 -107 -49 -182c0 -151 66 -251 203 -251s203 100 203 251s-66 251 -203 251z" />
    <glyph glyph-name="Otilde" unicode="&#xd5;" horiz-adv-x="740" 
d="M423 776c-21 0 -44 7 -67 20l-14 9c-15 9 -28 14 -39 14c-19 0 -33 -16 -33 -41h-73v15c0 71 41 111 102 111c22 0 45 -7 68 -20l15 -9c16 -9 29 -13 38 -13c21 0 32 13 32 40h72v-15c0 -72 -37 -111 -101 -111zM370 -9c-105 0 -186 33 -241 100s-82 154 -82 259
c0 106 27 192 82 259s136 100 241 100s185 -33 240 -100s83 -153 83 -259c0 -105 -28 -192 -83 -259s-135 -100 -240 -100zM370 601c-69 0 -121 -23 -154 -69s-49 -107 -49 -182c0 -151 66 -251 203 -251s203 100 203 251s-66 251 -203 251z" />
    <glyph glyph-name="Odieresis" unicode="&#xd6;" horiz-adv-x="740" 
d="M341 794h-114v114h114v-114zM526 794h-114v114h114v-114zM370 -9c-105 0 -186 33 -241 100s-82 154 -82 259c0 106 27 192 82 259s136 100 241 100s185 -33 240 -100s83 -153 83 -259c0 -105 -28 -192 -83 -259s-135 -100 -240 -100zM370 601c-69 0 -121 -23 -154 -69
s-49 -107 -49 -182c0 -151 66 -251 203 -251s203 100 203 251s-66 251 -203 251z" />
    <glyph glyph-name="multiply" unicode="&#xd7;" horiz-adv-x="435" 
d="M221 247l-144 -142l-70 71l143 141l-143 141l70 71l144 -142l144 142l71 -71l-143 -141l143 -141l-71 -71z" />
    <glyph glyph-name="Oslash" unicode="&#xd8;" horiz-adv-x="740" 
d="M597 738h107v-10l-90 -123c53 -65 79 -150 79 -255s-28 -192 -83 -259s-135 -100 -240 -100c-67 0 -124 14 -173 43l-56 -76h-105v10l92 126c-54 64 -81 149 -81 256c0 106 27 192 82 259s136 100 241 100c67 0 125 -15 174 -44zM167 350c0 -64 11 -116 33 -156l277 380
c-29 18 -65 27 -107 27c-69 0 -121 -23 -154 -69s-49 -107 -49 -182zM573 350c0 61 -11 113 -32 155l-277 -379c29 -18 65 -27 106 -27c137 0 203 100 203 251z" />
    <glyph glyph-name="Ugrave" unicode="&#xd9;" horiz-adv-x="714" 
d="M423 767h-90l-116 140v10h134l72 -140v-10zM356 -9c-84 0 -152 23 -203 70s-76 114 -76 199v440h117v-438c0 -101 51 -165 162 -165c112 0 163 64 163 165v438h118v-440c0 -85 -26 -152 -77 -199s-119 -70 -204 -70z" />
    <glyph glyph-name="Uacute" unicode="&#xda;" horiz-adv-x="714" 
d="M385 767h-90v10l72 140h134v-10zM356 -9c-84 0 -152 23 -203 70s-76 114 -76 199v440h117v-438c0 -101 51 -165 162 -165c112 0 163 64 163 165v438h118v-440c0 -85 -26 -152 -77 -199s-119 -70 -204 -70z" />
    <glyph glyph-name="Ucircumflex" unicode="&#xdb;" horiz-adv-x="714" 
d="M290 769h-98v10l98 136h134l98 -136v-10h-98l-65 69h-4zM356 -9c-84 0 -152 23 -203 70s-76 114 -76 199v440h117v-438c0 -101 51 -165 162 -165c112 0 163 64 163 165v438h118v-440c0 -85 -26 -152 -77 -199s-119 -70 -204 -70z" />
    <glyph glyph-name="Udieresis" unicode="&#xdc;" horiz-adv-x="714" 
d="M322 794h-114v114h114v-114zM507 794h-114v114h114v-114zM356 -9c-84 0 -152 23 -203 70s-76 114 -76 199v440h117v-438c0 -101 51 -165 162 -165c112 0 163 64 163 165v438h118v-440c0 -85 -26 -152 -77 -199s-119 -70 -204 -70z" />
    <glyph glyph-name="Yacute" unicode="&#xdd;" horiz-adv-x="670" 
d="M372 767h-90v10l72 140h134v-10zM395 0h-118v286l-256 404v10h135l179 -298h4l176 298h134v-10l-254 -403v-287z" />
    <glyph glyph-name="Thorn" unicode="&#xde;" horiz-adv-x="621" 
d="M205 0h-118v700h118v-96h166c71 0 127 -21 168 -63c42 -42 63 -96 63 -162c0 -68 -21 -123 -63 -166c-42 -42 -98 -63 -168 -63h-166v-150zM205 500v-245h146c84 0 131 44 131 124c0 76 -50 121 -131 121h-146z" />
    <glyph glyph-name="germandbls" unicode="&#xdf;" horiz-adv-x="656" 
d="M429 -9c-123 0 -198 69 -201 182h110c0 -53 30 -86 91 -86c48 0 77 22 77 58c0 28 -23 49 -68 64l-64 22c-88 29 -130 66 -130 137c0 65 45 107 89 123s89 43 89 80c0 48 -42 80 -114 80c-79 0 -121 -44 -121 -124v-527h-114v533c0 64 21 116 63 156c43 41 100 61 172 61
c71 0 127 -17 166 -52c39 -34 59 -76 59 -127c0 -60 -28 -101 -64 -121c-53 -28 -118 -41 -118 -80c4 -33 24 -40 68 -56l66 -21c92 -32 132 -76 132 -149c0 -46 -18 -83 -53 -111s-80 -42 -135 -42z" />
    <glyph glyph-name="agrave" unicode="&#xe0;" horiz-adv-x="546" 
d="M343 583h-90l-116 140v10h134l72 -140v-10zM219 -9c-55 0 -99 15 -132 45c-32 31 -48 69 -48 116c0 96 70 160 211 160h120v31c0 52 -34 88 -102 88c-60 0 -96 -33 -97 -77h-108c0 100 79 171 207 171c66 0 118 -17 156 -51s57 -77 57 -130v-344h-100l-8 61h-4
c-32 -47 -83 -70 -152 -70zM245 82c75 0 125 50 125 113v35h-115c-68 0 -102 -25 -102 -74c0 -44 32 -74 92 -74z" />
    <glyph glyph-name="aacute" unicode="&#xe1;" horiz-adv-x="546" 
d="M305 583h-90v10l72 140h134v-10zM219 -9c-55 0 -99 15 -132 45c-32 31 -48 69 -48 116c0 96 70 160 211 160h120v31c0 52 -34 88 -102 88c-60 0 -96 -33 -97 -77h-108c0 100 79 171 207 171c66 0 118 -17 156 -51s57 -77 57 -130v-344h-100l-8 61h-4
c-32 -47 -83 -70 -152 -70zM245 82c75 0 125 50 125 113v35h-115c-68 0 -102 -25 -102 -74c0 -44 32 -74 92 -74z" />
    <glyph glyph-name="acircumflex" unicode="&#xe2;" horiz-adv-x="546" 
d="M210 585h-98v10l98 136h134l98 -136v-10h-98l-65 69h-4zM219 -9c-55 0 -99 15 -132 45c-32 31 -48 69 -48 116c0 96 70 160 211 160h120v31c0 52 -34 88 -102 88c-60 0 -96 -33 -97 -77h-108c0 100 79 171 207 171c66 0 118 -17 156 -51s57 -77 57 -130v-344h-100l-8 61
h-4c-32 -47 -83 -70 -152 -70zM245 82c75 0 125 50 125 113v35h-115c-68 0 -102 -25 -102 -74c0 -44 32 -74 92 -74z" />
    <glyph glyph-name="atilde" unicode="&#xe3;" horiz-adv-x="546" 
d="M324 592c-21 0 -44 7 -67 20l-14 9c-15 9 -28 14 -39 14c-19 0 -33 -16 -33 -41h-73v15c0 71 41 111 102 111c22 0 45 -7 68 -20l15 -9c16 -9 29 -13 38 -13c21 0 32 13 32 40h72v-15c0 -72 -37 -111 -101 -111zM219 -9c-55 0 -99 15 -132 45c-32 31 -48 69 -48 116
c0 96 70 160 211 160h120v31c0 52 -34 88 -102 88c-60 0 -96 -33 -97 -77h-108c0 100 79 171 207 171c66 0 118 -17 156 -51s57 -77 57 -130v-344h-100l-8 61h-4c-32 -47 -83 -70 -152 -70zM245 82c75 0 125 50 125 113v35h-115c-68 0 -102 -25 -102 -74
c0 -44 32 -74 92 -74z" />
    <glyph glyph-name="adieresis" unicode="&#xe4;" horiz-adv-x="546" 
d="M242 610h-114v114h114v-114zM427 610h-114v114h114v-114zM219 -9c-55 0 -99 15 -132 45c-32 31 -48 69 -48 116c0 96 70 160 211 160h120v31c0 52 -34 88 -102 88c-60 0 -96 -33 -97 -77h-108c0 100 79 171 207 171c66 0 118 -17 156 -51s57 -77 57 -130v-344h-100l-8 61
h-4c-32 -47 -83 -70 -152 -70zM245 82c75 0 125 50 125 113v35h-115c-68 0 -102 -25 -102 -74c0 -44 32 -74 92 -74z" />
    <glyph glyph-name="aring" unicode="&#xe5;" horiz-adv-x="546" 
d="M273 570c-65 0 -113 46 -113 111s48 112 113 112c68 0 115 -45 115 -112c0 -65 -47 -111 -115 -111zM272 636c64 -6 62 96 0 91c-59 5 -59 -97 0 -91zM219 -9c-55 0 -99 15 -132 45c-32 31 -48 69 -48 116c0 96 70 160 211 160h120v31c0 52 -34 88 -102 88
c-60 0 -96 -33 -97 -77h-108c0 100 79 171 207 171c66 0 118 -17 156 -51s57 -77 57 -130v-344h-100l-8 61h-4c-32 -47 -83 -70 -152 -70zM245 82c75 0 125 50 125 113v35h-115c-68 0 -102 -25 -102 -74c0 -44 32 -74 92 -74z" />
    <glyph glyph-name="ae" unicode="&#xe6;" horiz-adv-x="879" 
d="M222 -9c-112 0 -183 68 -183 161c0 96 70 160 211 160h120v31c0 52 -34 88 -102 88c-60 0 -96 -33 -97 -77h-108c0 100 79 171 207 171c74 0 130 -23 168 -69h4c39 46 94 69 165 69c73 0 130 -24 171 -71s62 -107 62 -180v-48h-357c0 -85 43 -139 126 -139
c61 0 99 23 112 70h112c-7 -48 -32 -88 -73 -119s-91 -47 -151 -47c-86 0 -149 32 -189 97h-4c-38 -65 -103 -97 -194 -97zM484 307h239c-1 72 -41 121 -116 121c-79 0 -120 -49 -123 -121zM245 82c75 0 125 50 125 113v35h-114c-69 0 -103 -25 -103 -74
c0 -44 32 -74 92 -74z" />
    <glyph glyph-name="ccedilla" unicode="&#xe7;" horiz-adv-x="546" 
d="M393 187h114c-8 -111 -75 -186 -195 -195l-22 -34c59 -3 97 -37 97 -86c0 -55 -46 -94 -130 -94c-69 0 -121 35 -121 95h73c0 -19 19 -32 47 -32c27 0 47 11 47 32c0 19 -16 31 -44 31h-32l-25 31l31 60c-124 21 -194 120 -194 263c0 163 88 267 243 267
c139 0 216 -80 224 -197h-114c-5 59 -46 96 -110 96c-85 0 -127 -62 -127 -166c0 -105 42 -167 127 -167c64 0 104 36 111 96z" />
    <glyph glyph-name="egrave" unicode="&#xe8;" horiz-adv-x="554" 
d="M350 583h-90l-116 140v10h134l72 -140v-10zM283 -9c-76 0 -136 25 -179 75s-65 114 -65 192s21 142 62 192c42 50 102 75 180 75c73 0 130 -24 171 -71s62 -107 62 -180v-48h-357c0 -85 45 -139 126 -139c62 0 100 23 113 70h111c-7 -48 -32 -88 -73 -119
s-91 -47 -151 -47zM158 307h239c-1 72 -41 121 -116 121c-79 0 -120 -49 -123 -121z" />
    <glyph glyph-name="eacute" unicode="&#xe9;" horiz-adv-x="554" 
d="M312 583h-90v10l72 140h134v-10zM283 -9c-76 0 -136 25 -179 75s-65 114 -65 192s21 142 62 192c42 50 102 75 180 75c73 0 130 -24 171 -71s62 -107 62 -180v-48h-357c0 -85 45 -139 126 -139c62 0 100 23 113 70h111c-7 -48 -32 -88 -73 -119s-91 -47 -151 -47z
M158 307h239c-1 72 -41 121 -116 121c-79 0 -120 -49 -123 -121z" />
    <glyph glyph-name="ecircumflex" unicode="&#xea;" horiz-adv-x="554" 
d="M217 585h-98v10l98 136h134l98 -136v-10h-98l-65 69h-4zM283 -9c-76 0 -136 25 -179 75s-65 114 -65 192s21 142 62 192c42 50 102 75 180 75c73 0 130 -24 171 -71s62 -107 62 -180v-48h-357c0 -85 45 -139 126 -139c62 0 100 23 113 70h111c-7 -48 -32 -88 -73 -119
s-91 -47 -151 -47zM158 307h239c-1 72 -41 121 -116 121c-79 0 -120 -49 -123 -121z" />
    <glyph glyph-name="edieresis" unicode="&#xeb;" horiz-adv-x="554" 
d="M249 610h-114v114h114v-114zM434 610h-114v114h114v-114zM283 -9c-76 0 -136 25 -179 75s-65 114 -65 192s21 142 62 192c42 50 102 75 180 75c73 0 130 -24 171 -71s62 -107 62 -180v-48h-357c0 -85 45 -139 126 -139c62 0 100 23 113 70h111c-7 -48 -32 -88 -73 -119
s-91 -47 -151 -47zM158 307h239c-1 72 -41 121 -116 121c-79 0 -120 -49 -123 -121z" />
    <glyph glyph-name="igrave" unicode="&#xec;" horiz-adv-x="250" 
d="M199 583h-90l-116 140v10h134l72 -140v-10zM187 0h-114v516h114v-516z" />
    <glyph glyph-name="iacute" unicode="&#xed;" horiz-adv-x="250" 
d="M161 583h-90v10l72 140h134v-10zM187 0h-114v516h114v-516z" />
    <glyph glyph-name="icircumflex" unicode="&#xee;" horiz-adv-x="250" 
d="M66 585h-98v10l98 136h134l98 -136v-10h-98l-65 69h-4zM187 0h-114v516h114v-516z" />
    <glyph glyph-name="idieresis" unicode="&#xef;" horiz-adv-x="250" 
d="M98 610h-114v114h114v-114zM283 610h-114v114h114v-114zM187 0h-114v516h114v-516z" />
    <glyph glyph-name="eth" unicode="&#xf0;" horiz-adv-x="566" 
d="M527 260v-1v-1c0 -79 -21 -144 -63 -193s-102 -74 -181 -74s-140 25 -182 74c-41 49 -62 114 -62 193s21 143 63 192c43 50 103 75 181 75c14 0 28 -1 41 -3c-21 27 -44 51 -68 73l-114 -56l-33 63l88 44c-38 30 -80 58 -126 84v10h124c27 -16 55 -34 82 -54l104 52
l33 -65l-76 -37c115 -105 178 -221 188 -348c1 -6 1 -15 1 -28zM283 92c85 0 128 55 128 166c0 53 -11 93 -32 122s-53 44 -96 44s-75 -15 -96 -44s-32 -69 -32 -122c0 -105 44 -166 128 -166z" />
    <glyph glyph-name="ntilde" unicode="&#xf1;" horiz-adv-x="587" 
d="M375 592c-21 0 -44 7 -67 20l-14 9c-15 9 -28 14 -39 14c-19 0 -33 -16 -33 -41h-73v15c0 71 41 111 102 111c22 0 45 -7 68 -20l15 -9c16 -9 29 -13 38 -13c21 0 32 13 32 40h72v-15c0 -72 -37 -111 -101 -111zM187 0h-114v516h101l9 -67h4c32 51 82 76 151 76
c115 0 186 -72 186 -188v-337h-114v309c0 75 -35 113 -105 113c-72 0 -118 -52 -118 -137v-285z" />
    <glyph glyph-name="ograve" unicode="&#xf2;" horiz-adv-x="566" 
d="M352 583h-90l-116 140v10h134l72 -140v-10zM283 -9c-79 0 -140 25 -182 74c-41 49 -62 114 -62 193s21 143 63 192c43 50 103 75 181 75s138 -25 180 -75c43 -49 64 -113 64 -192s-21 -144 -63 -193s-102 -74 -181 -74zM283 92c85 0 128 55 128 166c0 53 -11 93 -32 122
s-53 44 -96 44s-75 -15 -96 -44s-32 -69 -32 -122c0 -105 44 -166 128 -166z" />
    <glyph glyph-name="oacute" unicode="&#xf3;" horiz-adv-x="566" 
d="M314 583h-90v10l72 140h134v-10zM283 -9c-79 0 -140 25 -182 74c-41 49 -62 114 -62 193s21 143 63 192c43 50 103 75 181 75s138 -25 180 -75c43 -49 64 -113 64 -192s-21 -144 -63 -193s-102 -74 -181 -74zM283 92c85 0 128 55 128 166c0 53 -11 93 -32 122
s-53 44 -96 44s-75 -15 -96 -44s-32 -69 -32 -122c0 -105 44 -166 128 -166z" />
    <glyph glyph-name="ocircumflex" unicode="&#xf4;" horiz-adv-x="566" 
d="M219 585h-98v10l98 136h134l98 -136v-10h-98l-65 69h-4zM283 -9c-79 0 -140 25 -182 74c-41 49 -62 114 -62 193s21 143 63 192c43 50 103 75 181 75s138 -25 180 -75c43 -49 64 -113 64 -192s-21 -144 -63 -193s-102 -74 -181 -74zM283 92c85 0 128 55 128 166
c0 53 -11 93 -32 122s-53 44 -96 44s-75 -15 -96 -44s-32 -69 -32 -122c0 -105 44 -166 128 -166z" />
    <glyph glyph-name="otilde" unicode="&#xf5;" horiz-adv-x="566" 
d="M333 592c-21 0 -44 7 -67 20l-14 9c-15 9 -28 14 -39 14c-19 0 -33 -16 -33 -41h-73v15c0 71 41 111 102 111c22 0 45 -7 68 -20l15 -9c16 -9 29 -13 38 -13c21 0 32 13 32 40h72v-15c0 -72 -37 -111 -101 -111zM283 -9c-79 0 -140 25 -182 74c-41 49 -62 114 -62 193
s21 143 63 192c43 50 103 75 181 75s138 -25 180 -75c43 -49 64 -113 64 -192s-21 -144 -63 -193s-102 -74 -181 -74zM283 92c85 0 128 55 128 166c0 53 -11 93 -32 122s-53 44 -96 44s-75 -15 -96 -44s-32 -69 -32 -122c0 -105 44 -166 128 -166z" />
    <glyph glyph-name="odieresis" unicode="&#xf6;" horiz-adv-x="566" 
d="M251 610h-114v114h114v-114zM436 610h-114v114h114v-114zM283 -9c-79 0 -140 25 -182 74c-41 49 -62 114 -62 193s21 143 63 192c43 50 103 75 181 75s138 -25 180 -75c43 -49 64 -113 64 -192s-21 -144 -63 -193s-102 -74 -181 -74zM283 92c85 0 128 55 128 166
c0 53 -11 93 -32 122s-53 44 -96 44s-75 -15 -96 -44s-32 -69 -32 -122c0 -105 44 -166 128 -166z" />
    <glyph glyph-name="divide" unicode="&#xf7;" horiz-adv-x="485" 
d="M291 438c-11 -12 -28 -18 -49 -18s-38 6 -50 18c-23 25 -23 75 0 99c12 12 29 18 50 18s38 -6 49 -18c24 -24 24 -74 0 -99zM480 265h-475v96h475v-96zM175 139c0 40 24 67 67 67s67 -27 67 -67c0 -41 -24 -68 -67 -68s-67 27 -67 68z" />
    <glyph glyph-name="oslash" unicode="&#xf8;" horiz-adv-x="566" 
d="M525 548l-63 -96c43 -49 65 -113 65 -194c0 -79 -21 -144 -63 -193s-102 -74 -181 -74c-42 0 -78 7 -109 21l-38 -59h-95v10l64 98c-44 48 -66 114 -66 197c0 79 21 143 63 192c43 50 103 75 181 75c40 0 76 -7 109 -22l36 55h97v-10zM155 258c0 -38 5 -70 16 -95
l164 252c-15 6 -33 9 -52 9c-85 0 -128 -61 -128 -166zM283 92c85 0 128 55 128 166c0 36 -5 67 -15 92l-163 -249c14 -6 31 -9 50 -9z" />
    <glyph glyph-name="ugrave" unicode="&#xf9;" horiz-adv-x="580" 
d="M361 583h-90l-116 140v10h134l72 -140v-10zM253 -8c-115 0 -186 71 -186 188v336h114v-308c0 -76 35 -114 105 -114c72 0 118 52 118 137v285h114v-516h-101l-9 68h-4c-31 -51 -82 -76 -151 -76z" />
    <glyph glyph-name="uacute" unicode="&#xfa;" horiz-adv-x="580" 
d="M323 583h-90v10l72 140h134v-10zM253 -8c-115 0 -186 71 -186 188v336h114v-308c0 -76 35 -114 105 -114c72 0 118 52 118 137v285h114v-516h-101l-9 68h-4c-31 -51 -82 -76 -151 -76z" />
    <glyph glyph-name="ucircumflex" unicode="&#xfb;" horiz-adv-x="580" 
d="M228 585h-98v10l98 136h134l98 -136v-10h-98l-65 69h-4zM253 -8c-115 0 -186 71 -186 188v336h114v-308c0 -76 35 -114 105 -114c72 0 118 52 118 137v285h114v-516h-101l-9 68h-4c-31 -51 -82 -76 -151 -76z" />
    <glyph glyph-name="udieresis" unicode="&#xfc;" horiz-adv-x="580" 
d="M260 610h-114v114h114v-114zM445 610h-114v114h114v-114zM253 -8c-115 0 -186 71 -186 188v336h114v-308c0 -76 35 -114 105 -114c72 0 118 52 118 137v285h114v-516h-101l-9 68h-4c-31 -51 -82 -76 -151 -76z" />
    <glyph glyph-name="yacute" unicode="&#xfd;" horiz-adv-x="544" 
d="M310 583h-90v10l72 140h134v-10zM16 506v10h119l134 -388h4l134 388h121v-10l-274 -735h-120v10l82 221l-12 2z" />
    <glyph glyph-name="thorn" unicode="&#xfe;" horiz-adv-x="600" 
d="M338 525c66 0 118 -24 157 -73c39 -48 58 -113 58 -194c0 -79 -19 -144 -57 -193c-37 -49 -90 -74 -158 -74c-67 0 -116 24 -147 71h-4v-291h-114v969h114v-286h4c31 47 80 71 147 71zM310 92c88 0 128 67 128 166s-40 166 -128 166c-85 0 -127 -69 -127 -166
s42 -166 127 -166z" />
    <glyph glyph-name="ydieresis" unicode="&#xff;" horiz-adv-x="544" 
d="M247 610h-114v114h114v-114zM432 610h-114v114h114v-114zM16 506v10h119l134 -388h4l134 388h121v-10l-274 -735h-120v10l82 221l-12 2z" />
    <glyph glyph-name="Amacron" unicode="&#x100;" horiz-adv-x="691" 
d="M205 891h281v-94h-281v94zM271 700h147l251 -690v-10h-128l-55 162h-286l-55 -162h-124v10zM341 577l-106 -312h216l-106 312h-4z" />
    <glyph glyph-name="amacron" unicode="&#x101;" horiz-adv-x="546" 
d="M416 613h-281v94h281v-94zM219 -9c-55 0 -99 15 -132 45c-32 31 -48 69 -48 116c0 96 70 160 211 160h120v31c0 52 -34 88 -102 88c-60 0 -96 -33 -97 -77h-108c0 100 79 171 207 171c66 0 118 -17 156 -51s57 -77 57 -130v-344h-100l-8 61h-4c-32 -47 -83 -70 -152 -70z
M245 82c75 0 125 50 125 113v35h-115c-68 0 -102 -25 -102 -74c0 -44 32 -74 92 -74z" />
    <glyph glyph-name="Abreve" unicode="&#x102;" horiz-adv-x="691" 
d="M344 769c-96 0 -152 56 -152 145h88c2 -39 23 -59 64 -59s63 20 65 59h88c0 -89 -54 -145 -153 -145zM271 700h147l251 -690v-10h-128l-55 162h-286l-55 -162h-124v10zM341 577l-106 -312h216l-106 312h-4z" />
    <glyph glyph-name="abreve" unicode="&#x103;" horiz-adv-x="546" 
d="M274 585c-96 0 -152 56 -152 145h88c2 -39 23 -59 64 -59s63 20 65 59h88c0 -89 -54 -145 -153 -145zM219 -9c-55 0 -99 15 -132 45c-32 31 -48 69 -48 116c0 96 70 160 211 160h120v31c0 52 -34 88 -102 88c-60 0 -96 -33 -97 -77h-108c0 100 79 171 207 171
c66 0 118 -17 156 -51s57 -77 57 -130v-344h-100l-8 61h-4c-32 -47 -83 -70 -152 -70zM245 82c75 0 125 50 125 113v35h-115c-68 0 -102 -25 -102 -74c0 -44 32 -74 92 -74z" />
    <glyph glyph-name="Aogonek" unicode="&#x104;" horiz-adv-x="691" 
d="M669 10v-10c-48 -21 -85 -55 -85 -96c0 -29 22 -45 51 -45h34v-80h-59c-67 0 -123 39 -123 103c0 49 24 88 72 118h-18l-55 162h-286l-55 -162h-124v10l250 690h147zM341 577l-106 -312h216l-106 312h-4z" />
    <glyph glyph-name="aogonek" unicode="&#x105;" horiz-adv-x="546" 
d="M270 525c66 0 118 -17 156 -51s57 -77 57 -130v-344h-1c-48 -21 -85 -55 -85 -96c0 -29 22 -45 51 -45h34v-80h-59c-67 0 -123 39 -123 103c0 53 27 94 82 124l-7 55h-4c-32 -47 -83 -70 -152 -70c-55 0 -99 15 -132 45c-32 31 -48 69 -48 116c0 96 70 160 211 160h120
v31c0 52 -34 88 -102 88c-60 0 -96 -33 -97 -77h-108c0 100 79 171 207 171zM370 195v35h-115c-68 0 -102 -25 -102 -74c0 -44 32 -74 92 -74c75 0 125 50 125 113z" />
    <glyph glyph-name="Cacute" unicode="&#x106;" horiz-adv-x="709" 
d="M400 767h-90v10l72 140h134v-10zM369 -9c-103 0 -182 33 -238 98c-56 66 -84 153 -84 260c0 108 28 195 84 261s135 99 238 99c85 0 153 -24 205 -71s81 -109 88 -185h-120c-9 89 -69 148 -173 148c-68 0 -119 -23 -152 -70c-33 -46 -50 -107 -50 -182
c0 -151 66 -251 202 -251c101 0 158 54 174 142h119c-9 -74 -39 -134 -90 -180s-119 -69 -203 -69z" />
    <glyph glyph-name="cacute" unicode="&#x107;" horiz-adv-x="546" 
d="M317 583h-90v10l72 140h134v-10zM285 -9c-78 0 -139 24 -182 72c-43 49 -64 114 -64 195c0 163 88 267 243 267c139 0 216 -80 224 -197h-114c-5 59 -46 96 -110 96c-85 0 -127 -62 -127 -166c0 -105 42 -167 127 -167c64 0 104 36 111 96h114
c-9 -119 -86 -196 -222 -196z" />
    <glyph glyph-name="Ccircumflex" unicode="&#x108;" horiz-adv-x="709" 
d="M305 769h-98v10l98 136h134l98 -136v-10h-98l-65 69h-4zM369 -9c-103 0 -182 33 -238 98c-56 66 -84 153 -84 260c0 108 28 195 84 261s135 99 238 99c85 0 153 -24 205 -71s81 -109 88 -185h-120c-9 89 -69 148 -173 148c-68 0 -119 -23 -152 -70
c-33 -46 -50 -107 -50 -182c0 -151 66 -251 202 -251c101 0 158 54 174 142h119c-9 -74 -39 -134 -90 -180s-119 -69 -203 -69z" />
    <glyph glyph-name="ccircumflex" unicode="&#x109;" horiz-adv-x="546" 
d="M222 585h-98v10l98 136h134l98 -136v-10h-98l-65 69h-4zM285 -9c-78 0 -139 24 -182 72c-43 49 -64 114 -64 195c0 163 88 267 243 267c139 0 216 -80 224 -197h-114c-5 59 -46 96 -110 96c-85 0 -127 -62 -127 -166c0 -105 42 -167 127 -167c64 0 104 36 111 96h114
c-9 -119 -86 -196 -222 -196z" />
    <glyph glyph-name="Cdotaccent" unicode="&#x10a;" horiz-adv-x="709" 
d="M431 787h-124v123h124v-123zM369 -9c-103 0 -182 33 -238 98c-56 66 -84 153 -84 260c0 108 28 195 84 261s135 99 238 99c85 0 153 -24 205 -71s81 -109 88 -185h-120c-9 89 -69 148 -173 148c-68 0 -119 -23 -152 -70c-33 -46 -50 -107 -50 -182
c0 -151 66 -251 202 -251c101 0 158 54 174 142h119c-9 -74 -39 -134 -90 -180s-119 -69 -203 -69z" />
    <glyph glyph-name="cdotaccent" unicode="&#x10b;" horiz-adv-x="546" 
d="M348 603h-124v123h124v-123zM285 -9c-78 0 -139 24 -182 72c-43 49 -64 114 -64 195c0 163 88 267 243 267c139 0 216 -80 224 -197h-114c-5 59 -46 96 -110 96c-85 0 -127 -62 -127 -166c0 -105 42 -167 127 -167c64 0 104 36 111 96h114c-9 -119 -86 -196 -222 -196z
" />
    <glyph glyph-name="Ccaron" unicode="&#x10c;" horiz-adv-x="709" 
d="M437 769h-134l-98 136v10h98l64 -69h4l66 69h98v-10zM369 -9c-103 0 -182 33 -238 98c-56 66 -84 153 -84 260c0 108 28 195 84 261s135 99 238 99c85 0 153 -24 205 -71s81 -109 88 -185h-120c-9 89 -69 148 -173 148c-68 0 -119 -23 -152 -70
c-33 -46 -50 -107 -50 -182c0 -151 66 -251 202 -251c101 0 158 54 174 142h119c-9 -74 -39 -134 -90 -180s-119 -69 -203 -69z" />
    <glyph glyph-name="ccaron" unicode="&#x10d;" horiz-adv-x="546" 
d="M354 585h-134l-98 136v10h98l64 -69h4l66 69h98v-10zM285 -9c-78 0 -139 24 -182 72c-43 49 -64 114 -64 195c0 163 88 267 243 267c139 0 216 -80 224 -197h-114c-5 59 -46 96 -110 96c-85 0 -127 -62 -127 -166c0 -105 42 -167 127 -167c64 0 104 36 111 96h114
c-9 -119 -86 -196 -222 -196z" />
    <glyph glyph-name="Dcaron" unicode="&#x10e;" horiz-adv-x="704" 
d="M384 769h-134l-98 136v10h98l64 -69h4l66 69h98v-10zM323 0h-236v700h236c101 0 182 -32 243 -96s91 -149 91 -254c0 -101 -30 -185 -89 -251s-141 -99 -245 -99zM200 594v-489h114c145 0 223 94 223 245c0 149 -78 244 -223 244h-114z" />
    <glyph glyph-name="dcaron" unicode="&#x10f;" 
d="M254 -9c-66 0 -118 24 -157 73c-38 49 -57 114 -58 195c1 79 20 143 57 192c38 49 91 74 158 74s117 -24 148 -71h4v286h114v-740h-101l-13 62h-4c-31 -47 -81 -71 -148 -71zM645 570h-76v170h118v-10zM282 92c85 0 128 70 128 167s-41 165 -128 165
c-88 0 -127 -68 -127 -165c0 -99 39 -167 127 -167z" />
    <glyph glyph-name="Dcroat" unicode="&#x110;" horiz-adv-x="751" 
d="M134 700h236c101 0 182 -32 243 -96s91 -149 91 -254c0 -101 -30 -185 -89 -251s-141 -99 -245 -99h-236v311h-71v102h71v287zM247 105h114c145 0 223 94 223 245c0 149 -78 244 -223 244h-114v-181h173v-102h-173v-206z" />
    <glyph glyph-name="dslash" unicode="&#x111;" 
d="M520 671h62v-80h-62v-591h-101l-13 62h-4c-31 -47 -81 -71 -148 -71c-66 0 -118 24 -157 73c-38 49 -57 114 -58 195c1 79 20 143 57 192c38 49 91 74 158 74s117 -24 148 -71h4v137h-114v80h114v69h114v-69zM282 92c85 0 128 70 128 167s-41 165 -128 165
c-88 0 -127 -68 -127 -165c0 -99 39 -167 127 -167z" />
    <glyph glyph-name="Emacron" unicode="&#x112;" horiz-adv-x="610" 
d="M474 797h-281v94h281v-94zM559 0h-472v700h472v-106h-355v-180h324v-106h-324v-203h355v-105z" />
    <glyph glyph-name="emacron" unicode="&#x113;" horiz-adv-x="554" 
d="M423 613h-281v94h281v-94zM283 -9c-76 0 -136 25 -179 75s-65 114 -65 192s21 142 62 192c42 50 102 75 180 75c73 0 130 -24 171 -71s62 -107 62 -180v-48h-357c0 -85 45 -139 126 -139c62 0 100 23 113 70h111c-7 -48 -32 -88 -73 -119s-91 -47 -151 -47zM158 307h239
c-1 72 -41 121 -116 121c-79 0 -120 -49 -123 -121z" />
    <glyph glyph-name="Ebreve" unicode="&#x114;" horiz-adv-x="610" 
d="M332 769c-96 0 -152 56 -152 145h88c2 -39 23 -59 64 -59s63 20 65 59h88c0 -89 -54 -145 -153 -145zM559 0h-472v700h472v-106h-355v-180h324v-106h-324v-203h355v-105z" />
    <glyph glyph-name="ebreve" unicode="&#x115;" horiz-adv-x="554" 
d="M281 585c-96 0 -152 56 -152 145h88c2 -39 23 -59 64 -59s63 20 65 59h88c0 -89 -54 -145 -153 -145zM283 -9c-76 0 -136 25 -179 75s-65 114 -65 192s21 142 62 192c42 50 102 75 180 75c73 0 130 -24 171 -71s62 -107 62 -180v-48h-357c0 -85 45 -139 126 -139
c62 0 100 23 113 70h111c-7 -48 -32 -88 -73 -119s-91 -47 -151 -47zM158 307h239c-1 72 -41 121 -116 121c-79 0 -120 -49 -123 -121z" />
    <glyph glyph-name="Edotaccent" unicode="&#x116;" horiz-adv-x="610" 
d="M394 787h-124v123h124v-123zM559 0h-472v700h472v-106h-355v-180h324v-106h-324v-203h355v-105z" />
    <glyph glyph-name="edotaccent" unicode="&#x117;" horiz-adv-x="554" 
d="M343 603h-124v123h124v-123zM283 -9c-76 0 -136 25 -179 75s-65 114 -65 192s21 142 62 192c42 50 102 75 180 75c73 0 130 -24 171 -71s62 -107 62 -180v-48h-357c0 -85 45 -139 126 -139c62 0 100 23 113 70h111c-7 -48 -32 -88 -73 -119s-91 -47 -151 -47zM158 307
h239c-1 72 -41 121 -116 121c-79 0 -120 -49 -123 -121z" />
    <glyph glyph-name="Eogonek" unicode="&#x118;" horiz-adv-x="610" 
d="M559 700v-106h-355v-180h324v-106h-324v-203h355v-105h-3c-48 -21 -85 -55 -85 -96c0 -29 22 -45 51 -45h34v-80h-59c-67 0 -123 39 -123 103c0 49 24 88 72 118h-359v700h472z" />
    <glyph glyph-name="eogonek" unicode="&#x119;" horiz-adv-x="554" 
d="M514 274v-48h-357c0 -85 45 -139 126 -139c62 0 100 23 113 70h111c-11 -75 -67 -134 -151 -157h2c-48 -21 -85 -55 -85 -96c0 -29 22 -45 51 -45h34v-80h-59c-67 0 -123 39 -123 103c0 45 21 83 63 112c-63 10 -112 39 -147 87c-35 49 -53 108 -53 177
c0 78 21 142 62 192c42 50 102 75 180 75c73 0 130 -24 171 -71s62 -107 62 -180zM158 307h239c-1 72 -41 121 -116 121c-79 0 -120 -49 -123 -121z" />
    <glyph glyph-name="Ecaron" unicode="&#x11a;" horiz-adv-x="610" 
d="M400 769h-134l-98 136v10h98l64 -69h4l66 69h98v-10zM559 0h-472v700h472v-106h-355v-180h324v-106h-324v-203h355v-105z" />
    <glyph glyph-name="ecaron" unicode="&#x11b;" horiz-adv-x="554" 
d="M349 585h-134l-98 136v10h98l64 -69h4l66 69h98v-10zM283 -9c-76 0 -136 25 -179 75s-65 114 -65 192s21 142 62 192c42 50 102 75 180 75c73 0 130 -24 171 -71s62 -107 62 -180v-48h-357c0 -85 45 -139 126 -139c62 0 100 23 113 70h111c-7 -48 -32 -88 -73 -119
s-91 -47 -151 -47zM158 307h239c-1 72 -41 121 -116 121c-79 0 -120 -49 -123 -121z" />
    <glyph glyph-name="Gcircumflex" unicode="&#x11c;" horiz-adv-x="718" 
d="M304 769h-98v10l98 136h134l98 -136v-10h-98l-65 69h-4zM367 -9c-103 0 -182 33 -237 98s-83 152 -83 259c0 109 28 196 83 262c56 66 135 99 237 99c85 0 153 -23 205 -68c53 -45 83 -103 90 -174h-120c-11 80 -70 134 -175 134c-136 0 -200 -101 -200 -253
c0 -151 64 -250 200 -250c115 0 179 70 186 170h-166v104h284v-67c0 -95 -28 -172 -83 -229s-128 -85 -221 -85z" />
    <glyph glyph-name="gcircumflex" unicode="&#x11d;" 
d="M214 585h-98v10l98 136h134l98 -136v-10h-98l-65 69h-4zM281 -238c-67 0 -121 17 -163 51c-41 33 -63 77 -64 131h111c4 -47 47 -84 116 -84c81 0 125 46 125 114v88h-4c-31 -47 -81 -71 -148 -71s-120 25 -158 74c-37 49 -56 114 -57 193c1 81 20 146 58 194
c39 49 91 73 157 73c67 0 117 -24 148 -71h4l13 62h101v-544c0 -62 -22 -112 -66 -151c-43 -39 -101 -59 -173 -59zM282 92c87 0 128 69 128 166c0 96 -43 166 -128 166c-88 0 -127 -67 -127 -166s39 -166 127 -166z" />
    <glyph glyph-name="Gbreve" unicode="&#x11e;" horiz-adv-x="718" 
d="M368 769c-96 0 -152 56 -152 145h88c2 -39 23 -59 64 -59s63 20 65 59h88c0 -89 -54 -145 -153 -145zM367 -9c-103 0 -182 33 -237 98s-83 152 -83 259c0 109 28 196 83 262c56 66 135 99 237 99c85 0 153 -23 205 -68c53 -45 83 -103 90 -174h-120
c-11 80 -70 134 -175 134c-136 0 -200 -101 -200 -253c0 -151 64 -250 200 -250c115 0 179 70 186 170h-166v104h284v-67c0 -95 -28 -172 -83 -229s-128 -85 -221 -85z" />
    <glyph glyph-name="gbreve" unicode="&#x11f;" 
d="M278 585c-96 0 -152 56 -152 145h88c2 -39 23 -59 64 -59s63 20 65 59h88c0 -89 -54 -145 -153 -145zM281 -238c-67 0 -121 17 -163 51c-41 33 -63 77 -64 131h111c4 -47 47 -84 116 -84c81 0 125 46 125 114v88h-4c-31 -47 -81 -71 -148 -71s-120 25 -158 74
c-37 49 -56 114 -57 193c1 81 20 146 58 194c39 49 91 73 157 73c67 0 117 -24 148 -71h4l13 62h101v-544c0 -62 -22 -112 -66 -151c-43 -39 -101 -59 -173 -59zM282 92c87 0 128 69 128 166c0 96 -43 166 -128 166c-88 0 -127 -67 -127 -166s39 -166 127 -166z" />
    <glyph glyph-name="Gdotaccent" unicode="&#x120;" horiz-adv-x="718" 
d="M430 787h-124v123h124v-123zM367 -9c-103 0 -182 33 -237 98s-83 152 -83 259c0 109 28 196 83 262c56 66 135 99 237 99c85 0 153 -23 205 -68c53 -45 83 -103 90 -174h-120c-11 80 -70 134 -175 134c-136 0 -200 -101 -200 -253c0 -151 64 -250 200 -250
c115 0 179 70 186 170h-166v104h284v-67c0 -95 -28 -172 -83 -229s-128 -85 -221 -85z" />
    <glyph glyph-name="gdotaccent" unicode="&#x121;" 
d="M340 603h-124v123h124v-123zM281 -238c-67 0 -121 17 -163 51c-41 33 -63 77 -64 131h111c4 -47 47 -84 116 -84c81 0 125 46 125 114v88h-4c-31 -47 -81 -71 -148 -71s-120 25 -158 74c-37 49 -56 114 -57 193c1 81 20 146 58 194c39 49 91 73 157 73
c67 0 117 -24 148 -71h4l13 62h101v-544c0 -62 -22 -112 -66 -151c-43 -39 -101 -59 -173 -59zM282 92c87 0 128 69 128 166c0 96 -43 166 -128 166c-88 0 -127 -67 -127 -166s39 -166 127 -166z" />
    <glyph glyph-name="Gcommaaccent" unicode="&#x122;" horiz-adv-x="718" 
d="M367 -9c-103 0 -182 33 -237 98s-83 152 -83 259c0 109 28 196 83 262c56 66 135 99 237 99c85 0 153 -23 205 -68c53 -45 83 -103 90 -174h-120c-11 80 -70 134 -175 134c-136 0 -200 -101 -200 -253c0 -151 64 -250 200 -250c115 0 179 70 186 170h-166v104h284v-67
c0 -95 -28 -172 -83 -229s-128 -85 -221 -85zM375 -214h-79v10l20 153h118v-10z" />
    <glyph glyph-name="gcommaaccent" unicode="&#x123;" 
d="M279 740h79v-10l-20 -153h-118v10zM281 -238c-67 0 -121 17 -163 51c-41 33 -63 77 -64 131h111c4 -47 47 -84 116 -84c81 0 125 46 125 114v88h-4c-31 -47 -81 -71 -148 -71s-120 25 -158 74c-37 49 -56 114 -57 193c1 81 20 146 58 194c39 49 91 73 157 73
c67 0 117 -24 148 -71h4l13 62h101v-544c0 -62 -22 -112 -66 -151c-43 -39 -101 -59 -173 -59zM282 92c87 0 128 69 128 166c0 96 -43 166 -128 166c-88 0 -127 -67 -127 -166s39 -166 127 -166z" />
    <glyph glyph-name="Hcircumflex" unicode="&#x124;" horiz-adv-x="735" 
d="M370 838h-4l-65 -69h-98v10l98 136h134l98 -136v-10h-98zM531 415v285h117v-700h-117v308h-327v-308h-117v700h117v-285h327z" />
    <glyph glyph-name="hcircumflex" unicode="&#x125;" horiz-adv-x="591" 
d="M66 792h-98v10l98 136h134l98 -136v-10h-98l-65 69h-4zM187 0h-114v740h114v-291h4c32 51 82 76 150 76c116 0 187 -72 187 -188v-337h-114v309c0 75 -35 113 -106 113c-72 0 -121 -53 -121 -138v-284z" />
    <glyph glyph-name="Hbar" unicode="&#x126;" horiz-adv-x="778" 
d="M670 615h54v-97h-54v-518h-117v308h-327v-308h-117v518h-57v97h57v85h117v-85h327v85h117v-85zM226 415h327v103h-327v-103z" />
    <glyph glyph-name="hbar" unicode="&#x127;" horiz-adv-x="591" 
d="M341 525c116 0 187 -72 187 -188v-337h-114v309c0 75 -35 113 -106 113c-72 0 -121 -53 -121 -138v-284h-114v591h-62v80h62v69h114v-69h114v-80h-114v-142h4c32 51 82 76 150 76z" />
    <glyph glyph-name="Itilde" unicode="&#x128;" horiz-adv-x="292" 
d="M197 776c-21 0 -44 7 -67 20l-14 9c-15 9 -28 14 -39 14c-19 0 -33 -16 -33 -41h-73v15c0 71 41 111 102 111c22 0 45 -7 68 -20l15 -9c16 -9 29 -13 38 -13c21 0 32 13 32 40h72v-15c0 -72 -37 -111 -101 -111zM205 0h-118v700h118v-700z" />
    <glyph glyph-name="itilde" unicode="&#x129;" horiz-adv-x="250" 
d="M180 592c-21 0 -44 7 -67 20l-14 9c-15 9 -28 14 -39 14c-19 0 -33 -16 -33 -41h-73v15c0 71 41 111 102 111c22 0 45 -7 68 -20l15 -9c16 -9 29 -13 38 -13c21 0 32 13 32 40h72v-15c0 -72 -37 -111 -101 -111zM187 0h-114v516h114v-516z" />
    <glyph glyph-name="Imacron" unicode="&#x12a;" horiz-adv-x="292" 
d="M289 797h-281v94h281v-94zM205 0h-118v700h118v-700z" />
    <glyph glyph-name="imacron" unicode="&#x12b;" horiz-adv-x="250" 
d="M272 613h-281v94h281v-94zM187 0h-114v516h114v-516z" />
    <glyph glyph-name="Ibreve" unicode="&#x12c;" horiz-adv-x="292" 
d="M147 769c-96 0 -152 56 -152 145h88c2 -39 23 -59 64 -59s63 20 65 59h88c0 -89 -54 -145 -153 -145zM205 0h-118v700h118v-700z" />
    <glyph glyph-name="ibreve" unicode="&#x12d;" horiz-adv-x="250" 
d="M130 585c-96 0 -152 56 -152 145h88c2 -39 23 -59 64 -59s63 20 65 59h88c0 -89 -54 -145 -153 -145zM187 0h-114v516h114v-516z" />
    <glyph glyph-name="Iogonek" unicode="&#x12e;" horiz-adv-x="292" 
d="M205 700v-700c-48 -21 -85 -55 -85 -96c0 -29 22 -45 51 -45h34v-80h-59c-67 0 -123 39 -123 103c0 49 24 88 72 118h-8v700h118z" />
    <glyph glyph-name="iogonek" unicode="&#x12f;" horiz-adv-x="250" 
d="M68 603v123h124v-123h-124zM77 0h-4v516h114v-516c-48 -21 -85 -55 -85 -96c0 -29 22 -45 51 -45h34v-80h-59c-67 0 -123 39 -123 103c0 49 24 88 72 118z" />
    <glyph glyph-name="Idot" unicode="&#x130;" horiz-adv-x="292" 
d="M209 787h-124v123h124v-123zM205 0h-118v700h118v-700z" />
    <glyph glyph-name="dotlessi" unicode="&#x131;" horiz-adv-x="250" 
d="M187 0h-114v516h114v-516z" />
    <glyph glyph-name="IJ" unicode="&#x132;" horiz-adv-x="830" 
d="M205 0h-118v700h118v-700zM531 -9c-68 0 -121 20 -160 59c-39 40 -58 91 -58 154h116c1 -64 36 -104 104 -104s102 42 102 110v490h118v-490c0 -132 -83 -219 -222 -219z" />
    <glyph glyph-name="ij" unicode="&#x133;" horiz-adv-x="509" 
d="M192 603h-124v123h124v-123zM452 603h-124v123h124v-123zM187 0h-114v516h114v-516zM281 -238h-52v104h38c44 0 66 24 66 73v577h114v-593c0 -105 -61 -161 -166 -161z" />
    <glyph glyph-name="Jcircumflex" unicode="&#x134;" horiz-adv-x="538" 
d="M334 769h-98v10l98 136h134l98 -136v-10h-98l-65 69h-4zM239 -9c-68 0 -121 20 -160 59c-39 40 -58 91 -58 154h116c1 -64 36 -104 104 -104s102 42 102 110v490h118v-490c0 -132 -83 -219 -222 -219z" />
    <glyph glyph-name="jcircumflex" unicode="&#x135;" horiz-adv-x="259" 
d="M73 585h-98v10l98 136h134l98 -136v-10h-98l-65 69h-4zM31 -238h-52v104h38c44 0 66 24 66 73v577h114v-593c0 -105 -61 -161 -166 -161z" />
    <glyph glyph-name="Kcommaaccent" unicode="&#x136;" horiz-adv-x="650" 
d="M629 690l-308 -323l319 -357v-10h-139l-297 333v-333h-117v700h117v-301l287 301h138v-10zM276 -214v10l20 153h118v-10l-59 -153h-79z" />
    <glyph glyph-name="kcommaaccent" unicode="&#x137;" horiz-adv-x="535" 
d="M511 506l-209 -224l217 -272v-10h-135l-201 254v-254h-110v740h110v-434l194 210h134v-10zM206 -214v10l20 153h118v-10l-59 -153h-79z" />
    <glyph glyph-name="kgreenlandic" unicode="&#x138;" horiz-adv-x="535" 
d="M511 506l-209 -229l217 -267v-10h-135l-201 250v-250h-110v516h110v-215l194 215h134v-10z" />
    <glyph glyph-name="Lacute" unicode="&#x139;" horiz-adv-x="552" 
d="M176 767h-90v10l72 140h134v-10zM534 0h-447v700h117v-594h330v-106z" />
    <glyph glyph-name="lacute" unicode="&#x13a;" horiz-adv-x="250" 
d="M159 790h-90v10l72 140h134v-10zM187 0h-114v740h114v-740z" />
    <glyph glyph-name="Lcommaaccent" unicode="&#x13b;" horiz-adv-x="552" 
d="M534 0h-447v700h117v-594h330v-106zM312 -214h-79v10l20 153h118v-10z" />
    <glyph glyph-name="lcommaaccent" unicode="&#x13c;" horiz-adv-x="250" 
d="M187 0h-114v740h114v-740zM129 -214h-79v10l20 153h118v-10z" />
    <glyph glyph-name="Lcaron" unicode="&#x13d;" horiz-adv-x="552" 
d="M534 0h-447v700h117v-594h330v-106zM401 530h-77v170h118v-10z" />
    <glyph glyph-name="lcaron" unicode="&#x13e;" horiz-adv-x="291" 
d="M187 0h-114v740h114v-740zM313 570h-77v170h118v-10z" />
    <glyph glyph-name="Ldot" unicode="&#x13f;" horiz-adv-x="600" 
d="M534 0h-447v700h117v-594h330v-106zM458 304h-132v130h132v-130z" />
    <glyph glyph-name="ldot" unicode="&#x140;" horiz-adv-x="403" 
d="M187 0h-114v740h114v-740zM375 304h-132v130h132v-130z" />
    <glyph glyph-name="Lslash" unicode="&#x141;" horiz-adv-x="622" 
d="M274 299v-193h330v-106h-447v253l-60 -23h-10v99l70 27v344h117v-298l176 69h10v-100z" />
    <glyph glyph-name="lslash" unicode="&#x142;" horiz-adv-x="357" 
d="M316 463h10v-97l-90 -43v-323h-114v268l-71 -34h-10v95l81 39v372h114v-316z" />
    <glyph glyph-name="Nacute" unicode="&#x143;" horiz-adv-x="743" 
d="M421 767h-90v10l72 140h134v-10zM202 0h-115v700h134l315 -514h4v514h116v-700h-135l-315 511h-4v-511z" />
    <glyph glyph-name="nacute" unicode="&#x144;" horiz-adv-x="587" 
d="M356 583h-90v10l72 140h134v-10zM187 0h-114v516h101l9 -67h4c32 51 82 76 151 76c115 0 186 -72 186 -188v-337h-114v309c0 75 -35 113 -105 113c-72 0 -118 -52 -118 -137v-285z" />
    <glyph glyph-name="Ncommaaccent" unicode="&#x145;" horiz-adv-x="743" 
d="M202 0h-115v700h134l315 -514h4v514h116v-700h-135l-315 511h-4v-511zM368 -214h-79v10l20 153h118v-10z" />
    <glyph glyph-name="ncommaaccent" unicode="&#x146;" horiz-adv-x="587" 
d="M187 0h-114v516h101l9 -67h4c32 51 82 76 151 76c115 0 186 -72 186 -188v-337h-114v309c0 75 -35 113 -105 113c-72 0 -118 -52 -118 -137v-285zM306 -214h-79v10l20 153h118v-10z" />
    <glyph glyph-name="Ncaron" unicode="&#x147;" horiz-adv-x="743" 
d="M458 769h-134l-98 136v10h98l64 -69h4l66 69h98v-10zM202 0h-115v700h134l315 -514h4v514h116v-700h-135l-315 511h-4v-511z" />
    <glyph glyph-name="ncaron" unicode="&#x148;" horiz-adv-x="587" 
d="M393 585h-134l-98 136v10h98l64 -69h4l66 69h98v-10zM187 0h-114v516h101l9 -67h4c32 51 82 76 151 76c115 0 186 -72 186 -188v-337h-114v309c0 75 -35 113 -105 113c-72 0 -118 -52 -118 -137v-285z" />
    <glyph glyph-name="napostrophe" unicode="&#x149;" horiz-adv-x="600" 
d="M18 463h-90v10l31 235h129v-10zM187 0h-114v516h101l9 -67h4c32 51 82 76 151 76c115 0 186 -72 186 -188v-337h-114v309c0 75 -35 113 -105 113c-72 0 -118 -52 -118 -137v-285z" />
    <glyph glyph-name="Eng" unicode="&#x14a;" horiz-adv-x="743" 
d="M540 186v514h116v-720c0 -132 -83 -219 -222 -219v109c69 0 106 42 106 110v20h-19l-315 511h-4v-511h-115v700h134l315 -514h4z" />
    <glyph glyph-name="eng" unicode="&#x14b;" horiz-adv-x="587" 
d="M338 525c115 0 186 -71 186 -188v-414c0 -105 -61 -161 -165 -161c-17 0 -34 2 -53 7v100c13 -2 26 -3 38 -3c44 0 66 24 66 73v370c0 75 -35 113 -105 113c-72 0 -118 -52 -118 -137v-285h-114v516h101l9 -67h4c32 51 82 76 151 76z" />
    <glyph glyph-name="Omacron" unicode="&#x14c;" horiz-adv-x="740" 
d="M515 797h-281v94h281v-94zM370 -9c-105 0 -186 33 -241 100s-82 154 -82 259c0 106 27 192 82 259s136 100 241 100s185 -33 240 -100s83 -153 83 -259c0 -105 -28 -192 -83 -259s-135 -100 -240 -100zM370 601c-69 0 -121 -23 -154 -69s-49 -107 -49 -182
c0 -151 66 -251 203 -251s203 100 203 251s-66 251 -203 251z" />
    <glyph glyph-name="omacron" unicode="&#x14d;" horiz-adv-x="566" 
d="M425 613h-281v94h281v-94zM283 -9c-79 0 -140 25 -182 74c-41 49 -62 114 -62 193s21 143 63 192c43 50 103 75 181 75s138 -25 180 -75c43 -49 64 -113 64 -192s-21 -144 -63 -193s-102 -74 -181 -74zM283 92c85 0 128 55 128 166c0 53 -11 93 -32 122s-53 44 -96 44
s-75 -15 -96 -44s-32 -69 -32 -122c0 -105 44 -166 128 -166z" />
    <glyph glyph-name="Obreve" unicode="&#x14e;" horiz-adv-x="740" 
d="M373 769c-96 0 -152 56 -152 145h88c2 -39 23 -59 64 -59s63 20 65 59h88c0 -89 -54 -145 -153 -145zM370 -9c-105 0 -186 33 -241 100s-82 154 -82 259c0 106 27 192 82 259s136 100 241 100s185 -33 240 -100s83 -153 83 -259c0 -105 -28 -192 -83 -259
s-135 -100 -240 -100zM370 601c-69 0 -121 -23 -154 -69s-49 -107 -49 -182c0 -151 66 -251 203 -251s203 100 203 251s-66 251 -203 251z" />
    <glyph glyph-name="obreve" unicode="&#x14f;" horiz-adv-x="566" 
d="M283 585c-96 0 -152 56 -152 145h88c2 -39 23 -59 64 -59s63 20 65 59h88c0 -89 -54 -145 -153 -145zM283 -9c-79 0 -140 25 -182 74c-41 49 -62 114 -62 193s21 143 63 192c43 50 103 75 181 75s138 -25 180 -75c43 -49 64 -113 64 -192s-21 -144 -63 -193
s-102 -74 -181 -74zM283 92c85 0 128 55 128 166c0 53 -11 93 -32 122s-53 44 -96 44s-75 -15 -96 -44s-32 -69 -32 -122c0 -105 44 -166 128 -166z" />
    <glyph glyph-name="Ohungarumlaut" unicode="&#x150;" horiz-adv-x="740" 
d="M316 767h-79v10l50 140h127v-10zM480 767h-79v10l51 140h127v-10zM370 -9c-105 0 -186 33 -241 100s-82 154 -82 259c0 106 27 192 82 259s136 100 241 100s185 -33 240 -100s83 -153 83 -259c0 -105 -28 -192 -83 -259s-135 -100 -240 -100zM370 601
c-69 0 -121 -23 -154 -69s-49 -107 -49 -182c0 -151 66 -251 203 -251s203 100 203 251s-66 251 -203 251z" />
    <glyph glyph-name="ohungarumlaut" unicode="&#x151;" horiz-adv-x="566" 
d="M226 583h-79v10l50 140h127v-10zM390 583h-79v10l51 140h127v-10zM283 -9c-79 0 -140 25 -182 74c-41 49 -62 114 -62 193s21 143 63 192c43 50 103 75 181 75s138 -25 180 -75c43 -49 64 -113 64 -192s-21 -144 -63 -193s-102 -74 -181 -74zM283 92c85 0 128 55 128 166
c0 53 -11 93 -32 122s-53 44 -96 44s-75 -15 -96 -44s-32 -69 -32 -122c0 -105 44 -166 128 -166z" />
    <glyph glyph-name="OE" unicode="&#x152;" horiz-adv-x="1097" 
d="M1046 700v-106h-355v-180h324v-106h-324v-203h355v-105h-472v58c-53 -45 -121 -67 -204 -67c-105 0 -186 33 -241 100s-82 154 -82 259c0 106 27 192 82 259s136 100 241 100c83 0 151 -22 204 -67v58h472zM370 601c-69 0 -121 -23 -154 -69s-49 -107 -49 -182
c0 -151 66 -251 203 -251s203 100 203 251s-66 251 -203 251z" />
    <glyph glyph-name="oe" unicode="&#x153;" horiz-adv-x="926" 
d="M886 274v-48h-357c0 -85 43 -139 126 -139c60 0 101 27 112 70h112c-7 -48 -32 -88 -73 -119s-91 -47 -151 -47c-78 0 -139 28 -184 83c-43 -55 -105 -83 -188 -83c-79 0 -140 25 -182 74c-41 49 -62 114 -62 193s21 143 63 192c43 50 103 75 181 75
c81 0 143 -27 187 -82c42 55 103 82 183 82c73 0 130 -24 171 -71s62 -107 62 -180zM530 307h239c-1 72 -41 121 -116 121c-79 0 -120 -49 -123 -121zM283 92c85 0 128 55 128 166c0 53 -11 93 -32 122s-53 44 -96 44s-75 -15 -96 -44s-32 -69 -32 -122
c0 -105 44 -166 128 -166z" />
    <glyph glyph-name="Racute" unicode="&#x154;" horiz-adv-x="670" 
d="M486 917v-10l-116 -140h-90v10l72 140h134zM467 278l179 -268v-10h-133l-169 264h-140v-264h-117v700h296c70 0 126 -21 167 -62s62 -93 62 -154c0 -100 -56 -177 -145 -206zM376 594h-172v-224h172c76 0 115 44 115 113c0 68 -40 111 -115 111z" />
    <glyph glyph-name="racute" unicode="&#x155;" horiz-adv-x="390" 
d="M247 583h-90v10l72 140h134v-10zM183 0h-110v516h96l10 -82h4c21 55 70 89 134 89h42v-106h-44c-87 0 -132 -60 -132 -165v-252z" />
    <glyph glyph-name="Rcommaaccent" unicode="&#x156;" horiz-adv-x="670" 
d="M467 278l179 -268v-10h-133l-169 264h-140v-264h-117v700h296c70 0 126 -21 167 -62s62 -93 62 -154c0 -100 -56 -177 -145 -206zM376 594h-172v-224h172c76 0 115 44 115 113c0 68 -40 111 -115 111zM277 -214v10l20 153h118v-10l-59 -153h-79z" />
    <glyph glyph-name="rcommaaccent" unicode="&#x157;" horiz-adv-x="390" 
d="M183 0h-110v516h96l10 -82h4c21 55 70 89 134 89h42v-106h-44c-87 0 -132 -60 -132 -165v-252zM160 -214h-79v10l20 153h118v-10z" />
    <glyph glyph-name="Rcaron" unicode="&#x158;" horiz-adv-x="670" 
d="M505 905l-98 -136h-134l-98 136v10h98l64 -69h4l66 69h98v-10zM467 278l179 -268v-10h-133l-169 264h-140v-264h-117v700h296c70 0 126 -21 167 -62s62 -93 62 -154c0 -100 -56 -177 -145 -206zM376 594h-172v-224h172c76 0 115 44 115 113c0 68 -40 111 -115 111z" />
    <glyph glyph-name="rcaron" unicode="&#x159;" horiz-adv-x="390" 
d="M284 585h-134l-98 136v10h98l64 -69h4l66 69h98v-10zM183 0h-110v516h96l10 -82h4c21 55 70 89 134 89h42v-106h-44c-87 0 -132 -60 -132 -165v-252z" />
    <glyph glyph-name="Sacute" unicode="&#x15a;" horiz-adv-x="632" 
d="M348 767h-90v10l72 140h134v-10zM315 -9c-173 0 -271 89 -278 232h119c5 -81 63 -127 159 -127c103 0 154 33 154 100c0 53 -35 81 -108 97l-102 22c-129 28 -199 86 -199 198c0 59 23 107 69 142c46 36 108 54 187 54c77 0 140 -20 188 -60c49 -40 73 -92 74 -157h-119
c-4 68 -52 111 -145 111c-89 0 -133 -30 -133 -90c0 -43 34 -72 102 -87l95 -20c141 -29 212 -99 212 -208c0 -128 -96 -207 -275 -207z" />
    <glyph glyph-name="sacute" unicode="&#x15b;" horiz-adv-x="511" 
d="M289 583h-90v10l72 140h134v-10zM258 -9c-136 0 -216 70 -219 181h114c0 -51 40 -83 105 -83c66 0 99 19 99 58c0 30 -23 50 -68 59l-91 17c-95 19 -143 70 -143 152c0 87 76 150 199 150c124 0 206 -69 206 -169h-112c-3 48 -37 77 -96 77c-52 0 -86 -22 -86 -59
c0 -30 23 -49 68 -56l88 -17c99 -21 150 -62 150 -154c0 -49 -20 -87 -61 -115c-40 -27 -91 -41 -153 -41z" />
    <glyph glyph-name="Scircumflex" unicode="&#x15c;" horiz-adv-x="632" 
d="M253 769h-98v10l98 136h134l98 -136v-10h-98l-65 69h-4zM315 -9c-173 0 -271 89 -278 232h119c5 -81 63 -127 159 -127c103 0 154 33 154 100c0 53 -35 81 -108 97l-102 22c-129 28 -199 86 -199 198c0 59 23 107 69 142c46 36 108 54 187 54c77 0 140 -20 188 -60
c49 -40 73 -92 74 -157h-119c-4 68 -52 111 -145 111c-89 0 -133 -30 -133 -90c0 -43 34 -72 102 -87l95 -20c141 -29 212 -99 212 -208c0 -128 -96 -207 -275 -207z" />
    <glyph glyph-name="scircumflex" unicode="&#x15d;" horiz-adv-x="511" 
d="M194 585h-98v10l98 136h134l98 -136v-10h-98l-65 69h-4zM258 -9c-136 0 -216 70 -219 181h114c0 -51 40 -83 105 -83c66 0 99 19 99 58c0 30 -23 50 -68 59l-91 17c-95 19 -143 70 -143 152c0 87 76 150 199 150c124 0 206 -69 206 -169h-112c-3 48 -37 77 -96 77
c-52 0 -86 -22 -86 -59c0 -30 23 -49 68 -56l88 -17c99 -21 150 -62 150 -154c0 -49 -20 -87 -61 -115c-40 -27 -91 -41 -153 -41z" />
    <glyph glyph-name="Scedilla" unicode="&#x15e;" horiz-adv-x="632" 
d="M590 198c0 -119 -82 -195 -237 -206l-22 -34c59 -3 97 -37 97 -86c0 -55 -46 -94 -130 -94c-69 0 -121 35 -121 95h73c0 -19 19 -32 47 -32c27 0 47 11 47 32c0 19 -16 31 -44 31h-32l-25 31l29 58c-147 13 -230 99 -235 230h119c5 -81 63 -127 159 -127
c103 0 154 33 154 100c0 53 -35 81 -108 97l-102 22c-129 28 -199 86 -199 198c0 59 23 107 69 142c46 36 108 54 187 54c77 0 140 -20 188 -60c49 -40 73 -92 74 -157h-119c-4 68 -52 111 -145 111c-89 0 -133 -30 -133 -90c0 -43 34 -72 102 -87l95 -20
c141 -29 212 -99 212 -208z" />
    <glyph glyph-name="scedilla" unicode="&#x15f;" horiz-adv-x="511" 
d="M472 147c0 -88 -72 -143 -179 -154l-22 -35c59 -3 97 -37 97 -86c0 -55 -46 -94 -130 -94c-69 0 -121 35 -121 95h73c0 -19 19 -32 47 -32c27 0 47 11 47 32c0 19 -16 31 -44 31h-32l-25 31l30 59c-109 13 -171 79 -174 178h114c0 -51 40 -83 105 -83c66 0 99 19 99 58
c0 30 -23 50 -68 59l-91 17c-95 19 -143 70 -143 152c0 87 76 150 199 150c124 0 206 -69 206 -169h-112c-3 48 -37 77 -96 77c-52 0 -86 -22 -86 -59c0 -30 23 -49 68 -56l88 -17c99 -21 150 -62 150 -154z" />
    <glyph glyph-name="Scaron" unicode="&#x160;" horiz-adv-x="632" 
d="M385 769h-134l-98 136v10h98l64 -69h4l66 69h98v-10zM315 -9c-173 0 -271 89 -278 232h119c5 -81 63 -127 159 -127c103 0 154 33 154 100c0 53 -35 81 -108 97l-102 22c-129 28 -199 86 -199 198c0 59 23 107 69 142c46 36 108 54 187 54c77 0 140 -20 188 -60
c49 -40 73 -92 74 -157h-119c-4 68 -52 111 -145 111c-89 0 -133 -30 -133 -90c0 -43 34 -72 102 -87l95 -20c141 -29 212 -99 212 -208c0 -128 -96 -207 -275 -207z" />
    <glyph glyph-name="scaron" unicode="&#x161;" horiz-adv-x="511" 
d="M326 585h-134l-98 136v10h98l64 -69h4l66 69h98v-10zM258 -9c-136 0 -216 70 -219 181h114c0 -51 40 -83 105 -83c66 0 99 19 99 58c0 30 -23 50 -68 59l-91 17c-95 19 -143 70 -143 152c0 87 76 150 199 150c124 0 206 -69 206 -169h-112c-3 48 -37 77 -96 77
c-52 0 -86 -22 -86 -59c0 -30 23 -49 68 -56l88 -17c99 -21 150 -62 150 -154c0 -49 -20 -87 -61 -115c-40 -27 -91 -41 -153 -41z" />
    <glyph glyph-name="uni0162" unicode="&#x162;" horiz-adv-x="592" 
d="M355 0h-118v594h-211v106h540v-106h-211v-594zM294 -214h-79v10l20 153h118v-10z" />
    <glyph glyph-name="uni0163" unicode="&#x163;" horiz-adv-x="402" 
d="M357 0h-88c-102 0 -153 50 -153 150v269h-85v97h90v137h109v-137h125v-97h-125v-249c0 -49 20 -70 67 -70h60v-100zM241 -214h-79v10l20 153h118v-10z" />
    <glyph glyph-name="Tcaron" unicode="&#x164;" horiz-adv-x="592" 
d="M367 769h-134l-98 136v10h98l64 -69h4l66 69h98v-10zM355 0h-118v594h-211v106h540v-106h-211v-594z" />
    <glyph glyph-name="tcaron" unicode="&#x165;" horiz-adv-x="402" 
d="M365 570h-76v170h118v-10zM357 0h-88c-102 0 -153 50 -153 150v269h-85v97h90v137h109v-137h125v-97h-125v-249c0 -49 20 -70 67 -70h60v-100z" />
    <glyph glyph-name="Tbar" unicode="&#x166;" horiz-adv-x="595" 
d="M566 700v-106h-211v-169h171v-99h-171v-326h-118v326h-168v99h168v169h-211v106h540z" />
    <glyph glyph-name="tbar" unicode="&#x167;" horiz-adv-x="402" 
d="M347 98h10v-96c-23 -7 -53 -11 -88 -11c-102 0 -153 50 -153 150v120h-85v84h85v74h-85v97h90v109l99 28h10v-137h125v-97h-125v-74h117v-84h-117v-100c0 -49 20 -70 67 -70c18 0 35 2 50 7z" />
    <glyph glyph-name="Utilde" unicode="&#x168;" horiz-adv-x="714" 
d="M404 776c-21 0 -44 7 -67 20l-14 9c-15 9 -28 14 -39 14c-19 0 -33 -16 -33 -41h-73v15c0 71 41 111 102 111c22 0 45 -7 68 -20l15 -9c16 -9 29 -13 38 -13c21 0 32 13 32 40h72v-15c0 -72 -37 -111 -101 -111zM356 -9c-84 0 -152 23 -203 70s-76 114 -76 199v440h117
v-438c0 -101 51 -165 162 -165c112 0 163 64 163 165v438h118v-440c0 -85 -26 -152 -77 -199s-119 -70 -204 -70z" />
    <glyph glyph-name="utilde" unicode="&#x169;" horiz-adv-x="580" 
d="M342 592c-21 0 -44 7 -67 20l-14 9c-15 9 -28 14 -39 14c-19 0 -33 -16 -33 -41h-73v15c0 71 41 111 102 111c22 0 45 -7 68 -20l15 -9c16 -9 29 -13 38 -13c21 0 32 13 32 40h72v-15c0 -72 -37 -111 -101 -111zM253 -8c-115 0 -186 71 -186 188v336h114v-308
c0 -76 35 -114 105 -114c72 0 118 52 118 137v285h114v-516h-101l-9 68h-4c-31 -51 -82 -76 -151 -76z" />
    <glyph glyph-name="Umacron" unicode="&#x16a;" horiz-adv-x="714" 
d="M496 797h-281v94h281v-94zM356 -9c-84 0 -152 23 -203 70s-76 114 -76 199v440h117v-438c0 -101 51 -165 162 -165c112 0 163 64 163 165v438h118v-440c0 -85 -26 -152 -77 -199s-119 -70 -204 -70z" />
    <glyph glyph-name="umacron" unicode="&#x16b;" horiz-adv-x="580" 
d="M434 613h-281v94h281v-94zM253 -8c-115 0 -186 71 -186 188v336h114v-308c0 -76 35 -114 105 -114c72 0 118 52 118 137v285h114v-516h-101l-9 68h-4c-31 -51 -82 -76 -151 -76z" />
    <glyph glyph-name="Ubreve" unicode="&#x16c;" horiz-adv-x="714" 
d="M354 769c-96 0 -152 56 -152 145h88c2 -39 23 -59 64 -59s63 20 65 59h88c0 -89 -54 -145 -153 -145zM356 -9c-84 0 -152 23 -203 70s-76 114 -76 199v440h117v-438c0 -101 51 -165 162 -165c112 0 163 64 163 165v438h118v-440c0 -85 -26 -152 -77 -199
s-119 -70 -204 -70z" />
    <glyph glyph-name="ubreve" unicode="&#x16d;" horiz-adv-x="580" 
d="M292 585c-96 0 -152 56 -152 145h88c2 -39 23 -59 64 -59s63 20 65 59h88c0 -89 -54 -145 -153 -145zM253 -8c-115 0 -186 71 -186 188v336h114v-308c0 -76 35 -114 105 -114c72 0 118 52 118 137v285h114v-516h-101l-9 68h-4c-31 -51 -82 -76 -151 -76z" />
    <glyph glyph-name="Uring" unicode="&#x16e;" horiz-adv-x="714" 
d="M353 754c-65 0 -113 46 -113 111s48 112 113 112c68 0 115 -45 115 -112c0 -65 -47 -111 -115 -111zM352 820c64 -6 62 96 0 91c-59 5 -59 -97 0 -91zM356 -9c-84 0 -152 23 -203 70s-76 114 -76 199v440h117v-438c0 -101 51 -165 162 -165c112 0 163 64 163 165v438h118
v-440c0 -85 -26 -152 -77 -199s-119 -70 -204 -70z" />
    <glyph glyph-name="uring" unicode="&#x16f;" horiz-adv-x="580" 
d="M291 570c-65 0 -113 46 -113 111s48 112 113 112c68 0 115 -45 115 -112c0 -65 -47 -111 -115 -111zM290 636c64 -6 62 96 0 91c-59 5 -59 -97 0 -91zM253 -8c-115 0 -186 71 -186 188v336h114v-308c0 -76 35 -114 105 -114c72 0 118 52 118 137v285h114v-516h-101l-9 68
h-4c-31 -51 -82 -76 -151 -76z" />
    <glyph glyph-name="Uhungarumlaut" unicode="&#x170;" horiz-adv-x="714" 
d="M297 767h-79v10l50 140h127v-10zM461 767h-79v10l51 140h127v-10zM356 -9c-84 0 -152 23 -203 70s-76 114 -76 199v440h117v-438c0 -101 51 -165 162 -165c112 0 163 64 163 165v438h118v-440c0 -85 -26 -152 -77 -199s-119 -70 -204 -70z" />
    <glyph glyph-name="uhungarumlaut" unicode="&#x171;" horiz-adv-x="580" 
d="M235 583h-79v10l50 140h127v-10zM399 583h-79v10l51 140h127v-10zM253 -8c-115 0 -186 71 -186 188v336h114v-308c0 -76 35 -114 105 -114c72 0 118 52 118 137v285h114v-516h-101l-9 68h-4c-31 -51 -82 -76 -151 -76z" />
    <glyph glyph-name="Uogonek" unicode="&#x172;" horiz-adv-x="714" 
d="M519 262v438h118v-440c0 -144 -78 -237 -207 -262c-53 -25 -80 -56 -80 -94c0 -29 22 -45 51 -45h34v-80h-59c-67 0 -123 39 -123 103c0 45 21 82 62 111c-145 16 -238 111 -238 267v440h117v-438c0 -101 51 -165 162 -165c112 0 163 64 163 165z" />
    <glyph glyph-name="uogonek" unicode="&#x173;" horiz-adv-x="580" 
d="M404 231v285h114v-516h-3c-48 -21 -85 -55 -85 -96c0 -29 22 -45 51 -45h34v-80h-59c-67 0 -123 39 -123 103c0 51 28 93 83 125l-8 61h-4c-31 -51 -82 -76 -151 -76c-115 0 -186 71 -186 188v336h114v-308c0 -76 35 -114 105 -114c72 0 118 52 118 137z" />
    <glyph glyph-name="Wcircumflex" unicode="&#x174;" horiz-adv-x="924" 
d="M396 769h-98v10l98 136h134l98 -136v-10h-98l-65 69h-4zM325 0h-137l-167 690v10h121l117 -529h4l136 529h126l138 -529h4l115 529h121v-10l-168 -690h-137l-133 518h-4z" />
    <glyph glyph-name="wcircumflex" unicode="&#x175;" horiz-adv-x="786" 
d="M333 579h-98v10l98 136h134l98 -136v-10h-98l-65 69h-4zM290 0h-137l-137 506v10h114l92 -380h4l99 380h137l99 -380h4l92 380h113v-10l-137 -506h-137l-99 380h-4z" />
    <glyph glyph-name="Ycircumflex" unicode="&#x176;" horiz-adv-x="670" 
d="M277 769h-98v10l98 136h134l98 -136v-10h-98l-65 69h-4zM395 0h-118v286l-256 404v10h135l179 -298h4l176 298h134v-10l-254 -403v-287z" />
    <glyph glyph-name="ycircumflex" unicode="&#x177;" horiz-adv-x="544" 
d="M215 585h-98v10l98 136h134l98 -136v-10h-98l-65 69h-4zM16 506v10h119l134 -388h4l134 388h121v-10l-274 -735h-120v10l82 221l-12 2z" />
    <glyph glyph-name="Ydieresis" unicode="&#x178;" horiz-adv-x="670" 
d="M309 794h-114v114h114v-114zM494 794h-114v114h114v-114zM395 0h-118v286l-256 404v10h135l179 -298h4l176 298h134v-10l-254 -403v-287z" />
    <glyph glyph-name="Zacute" unicode="&#x179;" horiz-adv-x="597" 
d="M329 767h-90v10l72 140h134v-10zM561 0h-525v103l373 486v4h-364v107h510v-105l-372 -485v-4h378v-106z" />
    <glyph glyph-name="zacute" unicode="&#x17a;" horiz-adv-x="502" 
d="M286 583h-90v10l72 140h134v-10zM456 0h-410v95l270 320v4h-269v97h407v-96l-269 -319v-4h271v-97z" />
    <glyph glyph-name="Zdotaccent" unicode="&#x17b;" horiz-adv-x="597" 
d="M360 787h-124v123h124v-123zM561 0h-525v103l373 486v4h-364v107h510v-105l-372 -485v-4h378v-106z" />
    <glyph glyph-name="zdotaccent" unicode="&#x17c;" horiz-adv-x="502" 
d="M317 603h-124v123h124v-123zM456 0h-410v95l270 320v4h-269v97h407v-96l-269 -319v-4h271v-97z" />
    <glyph glyph-name="Zcaron" unicode="&#x17d;" horiz-adv-x="597" 
d="M366 769h-134l-98 136v10h98l64 -69h4l66 69h98v-10zM561 0h-525v103l373 486v4h-364v107h510v-105l-372 -485v-4h378v-106z" />
    <glyph glyph-name="zcaron" unicode="&#x17e;" horiz-adv-x="502" 
d="M323 585h-134l-98 136v10h98l64 -69h4l66 69h98v-10zM456 0h-410v95l270 320v4h-269v97h407v-96l-269 -319v-4h271v-97z" />
    <glyph glyph-name="florin" unicode="&#x192;" horiz-adv-x="455" 
d="M154 -229h-114v10l82 535h-90v96h105l20 135c18 118 84 177 197 177h70v-98h-60c-55 0 -86 -30 -95 -89l-19 -125h132v-96h-146z" />
    <glyph glyph-name="uni01CD" unicode="&#x1cd;" horiz-adv-x="691" 
d="M510 905l-98 -136h-134l-98 136v10h98l64 -69h4l66 69h98v-10zM271 700h147l251 -690v-10h-128l-55 162h-286l-55 -162h-124v10zM341 577l-106 -312h216l-106 312h-4z" />
    <glyph glyph-name="uni01CE" unicode="&#x1ce;" horiz-adv-x="546" 
d="M342 585h-134l-98 136v10h98l64 -69h4l66 69h98v-10zM219 -9c-55 0 -99 15 -132 45c-32 31 -48 69 -48 116c0 96 70 160 211 160h120v31c0 52 -34 88 -102 88c-60 0 -96 -33 -97 -77h-108c0 100 79 171 207 171c66 0 118 -17 156 -51s57 -77 57 -130v-344h-100l-8 61h-4
c-32 -47 -83 -70 -152 -70zM245 82c75 0 125 50 125 113v35h-115c-68 0 -102 -25 -102 -74c0 -44 32 -74 92 -74z" />
    <glyph glyph-name="uni01CF" unicode="&#x1cf;" horiz-adv-x="292" 
d="M215 769h-134l-98 136v10h98l64 -69h4l66 69h98v-10zM205 0h-118v700h118v-700z" />
    <glyph glyph-name="uni01D0" unicode="&#x1d0;" horiz-adv-x="250" 
d="M198 585h-134l-98 136v10h98l64 -69h4l66 69h98v-10zM187 0h-114v516h114v-516z" />
    <glyph glyph-name="uni01D1" unicode="&#x1d1;" horiz-adv-x="740" 
d="M441 769h-134l-98 136v10h98l64 -69h4l66 69h98v-10zM370 -9c-105 0 -186 33 -241 100s-82 154 -82 259c0 106 27 192 82 259s136 100 241 100s185 -33 240 -100s83 -153 83 -259c0 -105 -28 -192 -83 -259s-135 -100 -240 -100zM370 601c-69 0 -121 -23 -154 -69
s-49 -107 -49 -182c0 -151 66 -251 203 -251s203 100 203 251s-66 251 -203 251z" />
    <glyph glyph-name="uni01D2" unicode="&#x1d2;" horiz-adv-x="566" 
d="M351 585h-134l-98 136v10h98l64 -69h4l66 69h98v-10zM283 -9c-79 0 -140 25 -182 74c-41 49 -62 114 -62 193s21 143 63 192c43 50 103 75 181 75s138 -25 180 -75c43 -49 64 -113 64 -192s-21 -144 -63 -193s-102 -74 -181 -74zM283 92c85 0 128 55 128 166
c0 53 -11 93 -32 122s-53 44 -96 44s-75 -15 -96 -44s-32 -69 -32 -122c0 -105 44 -166 128 -166z" />
    <glyph glyph-name="Gcaron" unicode="&#x1e6;" horiz-adv-x="718" 
d="M436 769h-134l-98 136v10h98l64 -69h4l66 69h98v-10zM367 -9c-103 0 -182 33 -237 98s-83 152 -83 259c0 109 28 196 83 262c56 66 135 99 237 99c85 0 153 -23 205 -68c53 -45 83 -103 90 -174h-120c-11 80 -70 134 -175 134c-136 0 -200 -101 -200 -253
c0 -151 64 -250 200 -250c115 0 179 70 186 170h-166v104h284v-67c0 -95 -28 -172 -83 -229s-128 -85 -221 -85z" />
    <glyph glyph-name="gcaron" unicode="&#x1e7;" 
d="M346 585h-134l-98 136v10h98l64 -69h4l66 69h98v-10zM281 -238c-67 0 -121 17 -163 51c-41 33 -63 77 -64 131h111c4 -47 47 -84 116 -84c81 0 125 46 125 114v88h-4c-31 -47 -81 -71 -148 -71s-120 25 -158 74c-37 49 -56 114 -57 193c1 81 20 146 58 194
c39 49 91 73 157 73c67 0 117 -24 148 -71h4l13 62h101v-544c0 -62 -22 -112 -66 -151c-43 -39 -101 -59 -173 -59zM282 92c87 0 128 69 128 166c0 96 -43 166 -128 166c-88 0 -127 -67 -127 -166s39 -166 127 -166z" />
    <glyph glyph-name="Scommaaccent" unicode="&#x218;" horiz-adv-x="632" 
d="M315 -9c-173 0 -271 89 -278 232h119c5 -81 63 -127 159 -127c103 0 154 33 154 100c0 53 -35 81 -108 97l-102 22c-129 28 -199 86 -199 198c0 59 23 107 69 142c46 36 108 54 187 54c77 0 140 -20 188 -60c49 -40 73 -92 74 -157h-119c-4 68 -52 111 -145 111
c-89 0 -133 -30 -133 -90c0 -43 34 -72 102 -87l95 -20c141 -29 212 -99 212 -208c0 -128 -96 -207 -275 -207zM318 -214h-79v10l20 153h118v-10z" />
    <glyph glyph-name="scommaaccent" unicode="&#x219;" horiz-adv-x="511" 
d="M258 -9c-136 0 -216 70 -219 181h114c0 -51 40 -83 105 -83c66 0 99 19 99 58c0 30 -23 50 -68 59l-91 17c-95 19 -143 70 -143 152c0 87 76 150 199 150c124 0 206 -69 206 -169h-112c-3 48 -37 77 -96 77c-52 0 -86 -22 -86 -59c0 -30 23 -49 68 -56l88 -17
c99 -21 150 -62 150 -154c0 -49 -20 -87 -61 -115c-40 -27 -91 -41 -153 -41zM258 -214h-79v10l20 153h118v-10z" />
    <glyph glyph-name="uni021A" unicode="&#x21a;" horiz-adv-x="592" 
d="M355 594v-594h-21l-27 -42c59 -3 97 -37 97 -86c0 -55 -46 -94 -130 -94c-69 0 -121 35 -121 95h73c0 -19 19 -32 47 -32c27 0 47 11 47 32c0 19 -16 31 -44 31h-32l-25 31l33 65h-15v594h-211v106h540v-106h-211z" />
    <glyph glyph-name="uni021B" unicode="&#x21b;" horiz-adv-x="402" 
d="M357 100v-100h-76l-27 -42c59 -3 97 -37 97 -86c0 -55 -46 -94 -130 -94c-69 0 -121 35 -121 95h73c0 -19 19 -32 47 -32c27 0 47 11 47 32c0 19 -16 31 -44 31h-32l-25 31l38 74c-59 19 -88 66 -88 141v269h-85v97h90v137h109v-137h125v-97h-125v-249
c0 -49 20 -70 67 -70h60z" />
    <glyph glyph-name="uni0237" unicode="&#x237;" horiz-adv-x="259" 
d="M31 -238h-52v104h38c44 0 66 24 66 73v577h114v-593c0 -105 -61 -161 -166 -161z" />
    <glyph glyph-name="circumflex" unicode="&#x2c6;" horiz-adv-x="392" 
d="M129 585h-98v10l98 136h134l98 -136v-10h-98l-65 69h-4z" />
    <glyph glyph-name="caron" unicode="&#x2c7;" horiz-adv-x="392" 
d="M263 585h-134l-98 136v10h98l64 -69h4l66 69h98v-10z" />
    <glyph glyph-name="breve" unicode="&#x2d8;" horiz-adv-x="375" 
d="M187 585c-96 0 -152 56 -152 145h88c2 -39 23 -59 64 -59s63 20 65 59h88c0 -89 -54 -145 -153 -145z" />
    <glyph glyph-name="dotaccent" unicode="&#x2d9;" horiz-adv-x="206" 
d="M165 603h-124v123h124v-123z" />
    <glyph glyph-name="ring" unicode="&#x2da;" horiz-adv-x="294" 
d="M146 570c-65 0 -113 46 -113 111s48 112 113 112c68 0 115 -45 115 -112c0 -65 -47 -111 -115 -111zM145 636c64 -6 62 96 0 91c-59 5 -59 -97 0 -91z" />
    <glyph glyph-name="ogonek" unicode="&#x2db;" horiz-adv-x="248" 
d="M215 -221h-59c-67 0 -123 39 -123 103c0 59 34 104 102 134l80 -16c-48 -21 -85 -55 -85 -96c0 -29 22 -45 51 -45h34v-80z" />
    <glyph glyph-name="tilde" unicode="&#x2dc;" horiz-adv-x="385" 
d="M255 592c-21 0 -44 7 -67 20l-14 9c-15 9 -28 14 -39 14c-19 0 -33 -16 -33 -41h-73v15c0 71 41 111 102 111c22 0 45 -7 68 -20l15 -9c16 -9 29 -13 38 -13c21 0 32 13 32 40h72v-15c0 -72 -37 -111 -101 -111z" />
    <glyph glyph-name="hungarumlaut" unicode="&#x2dd;" horiz-adv-x="408" 
d="M112 583h-79v10l50 140h127v-10zM276 583h-79v10l51 140h127v-10z" />
    <glyph glyph-name="uni0326" unicode="&#x326;" horiz-adv-x="0" 
d="M-100 -214h-79v10l20 153h118v-10z" />
    <glyph glyph-name="Wgrave" unicode="&#x1e80;" horiz-adv-x="924" 
d="M529 767h-90l-116 140v10h134l72 -140v-10zM325 0h-137l-167 690v10h121l117 -529h4l136 529h126l138 -529h4l115 529h121v-10l-168 -690h-137l-133 518h-4z" />
    <glyph glyph-name="wgrave" unicode="&#x1e81;" horiz-adv-x="786" 
d="M466 577h-90l-116 140v10h134l72 -140v-10zM290 0h-137l-137 506v10h114l92 -380h4l99 380h137l99 -380h4l92 380h113v-10l-137 -506h-137l-99 380h-4z" />
    <glyph glyph-name="Wacute" unicode="&#x1e82;" horiz-adv-x="924" 
d="M491 767h-90v10l72 140h134v-10zM325 0h-137l-167 690v10h121l117 -529h4l136 529h126l138 -529h4l115 529h121v-10l-168 -690h-137l-133 518h-4z" />
    <glyph glyph-name="wacute" unicode="&#x1e83;" horiz-adv-x="786" 
d="M428 577h-90v10l72 140h134v-10zM290 0h-137l-137 506v10h114l92 -380h4l99 380h137l99 -380h4l92 380h113v-10l-137 -506h-137l-99 380h-4z" />
    <glyph glyph-name="Wdieresis" unicode="&#x1e84;" horiz-adv-x="924" 
d="M428 794h-114v114h114v-114zM613 794h-114v114h114v-114zM325 0h-137l-167 690v10h121l117 -529h4l136 529h126l138 -529h4l115 529h121v-10l-168 -690h-137l-133 518h-4z" />
    <glyph glyph-name="wdieresis" unicode="&#x1e85;" horiz-adv-x="786" 
d="M365 604h-114v114h114v-114zM550 604h-114v114h114v-114zM290 0h-137l-137 506v10h114l92 -380h4l99 380h137l99 -380h4l92 380h113v-10l-137 -506h-137l-99 380h-4z" />
    <glyph glyph-name="uni1EBC" unicode="&#x1ebc;" horiz-adv-x="610" 
d="M382 776c-21 0 -44 7 -67 20l-14 9c-15 9 -28 14 -39 14c-19 0 -33 -16 -33 -41h-73v15c0 71 41 111 102 111c22 0 45 -7 68 -20l15 -9c16 -9 29 -13 38 -13c21 0 32 13 32 40h72v-15c0 -72 -37 -111 -101 -111zM559 0h-472v700h472v-106h-355v-180h324v-106h-324v-203
h355v-105z" />
    <glyph glyph-name="uni1EBD" unicode="&#x1ebd;" horiz-adv-x="554" 
d="M331 592c-21 0 -44 7 -67 20l-14 9c-15 9 -28 14 -39 14c-19 0 -33 -16 -33 -41h-73v15c0 71 41 111 102 111c22 0 45 -7 68 -20l15 -9c16 -9 29 -13 38 -13c21 0 32 13 32 40h72v-15c0 -72 -37 -111 -101 -111zM283 -9c-76 0 -136 25 -179 75s-65 114 -65 192
s21 142 62 192c42 50 102 75 180 75c73 0 130 -24 171 -71s62 -107 62 -180v-48h-357c0 -85 45 -139 126 -139c62 0 100 23 113 70h111c-7 -48 -32 -88 -73 -119s-91 -47 -151 -47zM158 307h239c-1 72 -41 121 -116 121c-79 0 -120 -49 -123 -121z" />
    <glyph glyph-name="Ygrave" unicode="&#x1ef2;" horiz-adv-x="670" 
d="M410 767h-90l-116 140v10h134l72 -140v-10zM395 0h-118v286l-256 404v10h135l179 -298h4l176 298h134v-10l-254 -403v-287z" />
    <glyph glyph-name="ygrave" unicode="&#x1ef3;" horiz-adv-x="544" 
d="M348 583h-90l-116 140v10h134l72 -140v-10zM16 506v10h119l134 -388h4l134 388h121v-10l-274 -735h-120v10l82 221l-12 2z" />
    <glyph glyph-name="uni2000" unicode="&#x2000;" horiz-adv-x="488" 
 />
    <glyph glyph-name="uni2001" unicode="&#x2001;" horiz-adv-x="977" 
 />
    <glyph glyph-name="uni2002" unicode="&#x2002;" horiz-adv-x="488" 
 />
    <glyph glyph-name="uni2003" unicode="&#x2003;" horiz-adv-x="977" 
 />
    <glyph glyph-name="uni2004" unicode="&#x2004;" horiz-adv-x="325" 
 />
    <glyph glyph-name="uni2005" unicode="&#x2005;" horiz-adv-x="244" 
 />
    <glyph glyph-name="uni2006" unicode="&#x2006;" horiz-adv-x="162" 
 />
    <glyph glyph-name="uni2007" unicode="&#x2007;" horiz-adv-x="162" 
 />
    <glyph glyph-name="uni2008" unicode="&#x2008;" horiz-adv-x="122" 
 />
    <glyph glyph-name="uni2009" unicode="&#x2009;" horiz-adv-x="195" 
 />
    <glyph glyph-name="uni200A" unicode="&#x200a;" horiz-adv-x="54" 
 />
    <glyph glyph-name="uni2010" unicode="&#x2010;" horiz-adv-x="466" 
d="M386 241h-306v104h306v-104z" />
    <glyph glyph-name="uni2011" unicode="&#x2011;" horiz-adv-x="466" 
d="M386 241h-306v104h306v-104z" />
    <glyph glyph-name="figuredash" unicode="&#x2012;" horiz-adv-x="466" 
d="M386 241h-306v104h306v-104z" />
    <glyph glyph-name="endash" unicode="&#x2013;" horiz-adv-x="622" 
d="M562 241h-502v104h502v-104z" />
    <glyph glyph-name="emdash" unicode="&#x2014;" horiz-adv-x="1102" 
d="M1042 241h-982v104h982v-104z" />
    <glyph glyph-name="quoteleft" unicode="&#x2018;" horiz-adv-x="225" 
d="M103 700h90v-10l-31 -235h-129v10z" />
    <glyph glyph-name="quoteright" unicode="&#x2019;" horiz-adv-x="225" 
d="M122 455h-90v10l31 235h129v-10z" />
    <glyph glyph-name="quotesinglbase" unicode="&#x201a;" horiz-adv-x="225" 
d="M122 -138h-90v10l31 235h129v-10z" />
    <glyph glyph-name="quotedblleft" unicode="&#x201c;" horiz-adv-x="412" 
d="M103 700h90v-10l-31 -235h-129v10zM290 700h90v-10l-31 -235h-129v10z" />
    <glyph glyph-name="quotedblright" unicode="&#x201d;" horiz-adv-x="412" 
d="M122 455h-90v10l31 235h129v-10zM310 455h-90v10l31 235h129v-10z" />
    <glyph glyph-name="quotedblbase" unicode="&#x201e;" horiz-adv-x="412" 
d="M122 -138h-90v10l31 235h129v-10zM310 -138h-90v10l31 235h129v-10z" />
    <glyph glyph-name="dagger" unicode="&#x2020;" horiz-adv-x="477" 
d="M288 570h110v-94h-110v-140l-14 -165h-71l-14 165v140h-110v94h110v130h99v-130z" />
    <glyph glyph-name="daggerdbl" unicode="&#x2021;" horiz-adv-x="477" 
d="M398 476h-114l-10 -126l11 -126h113v-93h-110v-130h-99v130h-110v93h113l11 126l-10 126h-114v94h110v130h99v-130h110v-94z" />
    <glyph glyph-name="bullet" unicode="&#x2022;" horiz-adv-x="386" 
d="M193 156c-85 0 -133 54 -133 138c0 81 48 135 133 135c83 0 133 -55 133 -135c0 -83 -49 -138 -133 -138z" />
    <glyph glyph-name="ellipsis" unicode="&#x2026;" horiz-adv-x="807" 
d="M186 0h-132v130h132v-130zM470 0h-132v130h132v-130zM753 0h-132v130h132v-130z" />
    <glyph glyph-name="uni202F" unicode="&#x202f;" horiz-adv-x="195" 
 />
    <glyph glyph-name="perthousand" unicode="&#x2030;" horiz-adv-x="1213" 
d="M213 348c-101 0 -156 73 -156 182s55 182 156 182c100 0 155 -73 155 -182s-55 -182 -155 -182zM237 0h-101v10l474 690h99v-10zM213 427c47 0 70 34 70 103s-23 103 -70 103s-71 -34 -71 -103s24 -103 71 -103zM637 355c100 0 156 -73 156 -182s-55 -182 -156 -182
s-156 73 -156 182s55 182 156 182zM1000 -9c-101 0 -156 73 -156 182s55 182 156 182c100 0 155 -73 155 -182s-55 -182 -155 -182zM567 173c0 -69 23 -103 70 -103s70 34 70 103s-23 103 -70 103s-70 -34 -70 -103zM1000 70c47 0 70 34 70 103s-23 103 -70 103
s-71 -34 -71 -103s24 -103 71 -103z" />
    <glyph glyph-name="guilsinglleft" unicode="&#x2039;" horiz-adv-x="351" 
d="M303 66h-106l-166 212v10l166 212h106v-10l-140 -207l140 -207v-10z" />
    <glyph glyph-name="guilsinglright" unicode="&#x203a;" horiz-adv-x="351" 
d="M153 66h-106v10l140 207l-140 207v10h106l166 -212v-10z" />
    <glyph glyph-name="fraction" unicode="&#x2044;" horiz-adv-x="544" 
d="M99 -100h-109v10l457 890h107v-10z" />
    <glyph glyph-name="uni205F" unicode="&#x205f;" horiz-adv-x="244" 
 />
    <glyph glyph-name="Euro" unicode="&#x20ac;" horiz-adv-x="756" 
d="M416 98c101 0 158 54 173 142h119c-8 -74 -38 -134 -89 -180s-119 -69 -203 -69c-163 0 -270 90 -307 235h-62v84h48c-1 9 -1 22 -1 39c0 15 0 25 1 32h-48v84h60c35 151 144 244 309 244c85 0 153 -24 205 -71s81 -109 87 -185h-120c-8 88 -68 148 -172 148
c-94 0 -156 -45 -186 -136h245l-20 -84h-240c-1 -7 -1 -17 -1 -32c0 -9 1 -22 2 -39h224l-20 -84h-187c30 -85 91 -128 183 -128z" />
    <glyph glyph-name="uni2116" unicode="&#x2116;" horiz-adv-x="1158" 
d="M898 332c-113 0 -174 76 -174 188s62 189 174 189c111 0 173 -77 173 -189c0 -111 -61 -188 -173 -188zM202 0h-115v700h134l315 -514h4v514h116v-700h-135l-315 511h-4v-511zM897 415c55 0 82 35 82 106c0 70 -27 105 -82 105c-53 0 -81 -40 -81 -105
c0 -67 28 -106 81 -106zM1059 195h-315v88h315v-88z" />
    <glyph glyph-name="trademark" unicode="&#x2122;" horiz-adv-x="732" 
d="M202 373h-71v262h-98v65h267v-65h-98v-262zM416 373h-66v327h79l96 -162h3l95 162h77v-327h-66v220h-3l-100 -165h-10l-102 166h-3v-221z" />
    <glyph glyph-name="minus" unicode="&#x2212;" horiz-adv-x="485" 
d="M480 264h-475v98h475v-98z" />
    <glyph glyph-name="notequal" unicode="&#x2260;" horiz-adv-x="485" 
d="M480 458v-98h-161l-64 -105h225v-98h-285l-39 -65h-85v10l33 55h-99v98h159l64 105h-223v98h282l42 69h85v-10l-36 -59h102z" />
    <glyph glyph-name="lessequal" unicode="&#x2264;" horiz-adv-x="521" 
d="M479 254v-107l-438 171v122l438 171v-107l-336 -123v-4zM479 0h-438v98h438v-98z" />
    <glyph glyph-name="greaterequal" unicode="&#x2265;" horiz-adv-x="521" 
d="M479 318l-438 -171v107l336 123v4l-336 123v107l438 -171v-122zM479 0h-438v98h438v-98z" />
    <glyph glyph-name="uni25FC" unicode="&#x25fc;" horiz-adv-x="515" 
d="M0 0v515h515v-515h-515z" />
    <glyph glyph-name="i.loclTRK" horiz-adv-x="250" 
d="M192 603h-124v123h124v-123zM187 0h-114v516h114v-516z" />
    <glyph glyph-name="a.ss01" 
d="M255 -9c-68 0 -121 25 -159 74c-38 50 -57 114 -57 192c0 79 19 144 56 193c38 50 91 75 159 75c67 0 117 -24 148 -71h4l13 62h101v-516h-101l-11 62h-4c-31 -47 -80 -71 -149 -71zM282 92c87 0 128 69 128 166s-41 166 -128 166c-88 0 -127 -67 -127 -166
s39 -166 127 -166z" />
    <glyph glyph-name="aacute.ss01" 
d="M320 583h-90v10l72 140h134v-10zM255 -9c-68 0 -121 25 -159 74c-38 50 -57 114 -57 192c0 79 19 144 56 193c38 50 91 75 159 75c67 0 117 -24 148 -71h4l13 62h101v-516h-101l-11 62h-4c-31 -47 -80 -71 -149 -71zM282 92c87 0 128 69 128 166s-41 166 -128 166
c-88 0 -127 -67 -127 -166s39 -166 127 -166z" />
    <glyph glyph-name="abreve.ss01" 
d="M289 585c-96 0 -152 56 -152 145h88c2 -39 23 -59 64 -59s63 20 65 59h88c0 -89 -54 -145 -153 -145zM255 -9c-68 0 -121 25 -159 74c-38 50 -57 114 -57 192c0 79 19 144 56 193c38 50 91 75 159 75c67 0 117 -24 148 -71h4l13 62h101v-516h-101l-11 62h-4
c-31 -47 -80 -71 -149 -71zM282 92c87 0 128 69 128 166s-41 166 -128 166c-88 0 -127 -67 -127 -166s39 -166 127 -166z" />
    <glyph glyph-name="uni01CE.ss01" 
d="M357 585h-134l-98 136v10h98l64 -69h4l66 69h98v-10zM255 -9c-68 0 -121 25 -159 74c-38 50 -57 114 -57 192c0 79 19 144 56 193c38 50 91 75 159 75c67 0 117 -24 148 -71h4l13 62h101v-516h-101l-11 62h-4c-31 -47 -80 -71 -149 -71zM282 92c87 0 128 69 128 166
s-41 166 -128 166c-88 0 -127 -67 -127 -166s39 -166 127 -166z" />
    <glyph glyph-name="acircumflex.ss01" 
d="M225 585h-98v10l98 136h134l98 -136v-10h-98l-65 69h-4zM255 -9c-68 0 -121 25 -159 74c-38 50 -57 114 -57 192c0 79 19 144 56 193c38 50 91 75 159 75c67 0 117 -24 148 -71h4l13 62h101v-516h-101l-11 62h-4c-31 -47 -80 -71 -149 -71zM282 92c87 0 128 69 128 166
s-41 166 -128 166c-88 0 -127 -67 -127 -166s39 -166 127 -166z" />
    <glyph glyph-name="adieresis.ss01" 
d="M257 610h-114v114h114v-114zM442 610h-114v114h114v-114zM255 -9c-68 0 -121 25 -159 74c-38 50 -57 114 -57 192c0 79 19 144 56 193c38 50 91 75 159 75c67 0 117 -24 148 -71h4l13 62h101v-516h-101l-11 62h-4c-31 -47 -80 -71 -149 -71zM282 92c87 0 128 69 128 166
s-41 166 -128 166c-88 0 -127 -67 -127 -166s39 -166 127 -166z" />
    <glyph glyph-name="agrave.ss01" 
d="M358 583h-90l-116 140v10h134l72 -140v-10zM255 -9c-68 0 -121 25 -159 74c-38 50 -57 114 -57 192c0 79 19 144 56 193c38 50 91 75 159 75c67 0 117 -24 148 -71h4l13 62h101v-516h-101l-11 62h-4c-31 -47 -80 -71 -149 -71zM282 92c87 0 128 69 128 166
s-41 166 -128 166c-88 0 -127 -67 -127 -166s39 -166 127 -166z" />
    <glyph glyph-name="amacron.ss01" 
d="M431 613h-281v94h281v-94zM255 -9c-68 0 -121 25 -159 74c-38 50 -57 114 -57 192c0 79 19 144 56 193c38 50 91 75 159 75c67 0 117 -24 148 -71h4l13 62h101v-516h-101l-11 62h-4c-31 -47 -80 -71 -149 -71zM282 92c87 0 128 69 128 166s-41 166 -128 166
c-88 0 -127 -67 -127 -166s39 -166 127 -166z" />
    <glyph glyph-name="aogonek.ss01" 
d="M520 516v-516c-48 -21 -85 -55 -85 -96c0 -29 22 -45 51 -45h34v-80h-59c-67 0 -123 39 -123 103c0 51 27 92 80 123l-10 57h-4c-31 -47 -80 -71 -149 -71c-68 0 -121 25 -159 74c-38 50 -57 114 -57 192c0 79 19 144 56 193c38 50 91 75 159 75c67 0 117 -24 148 -71h4
l13 62h101zM282 92c87 0 128 69 128 166s-41 166 -128 166c-88 0 -127 -67 -127 -166s39 -166 127 -166z" />
    <glyph glyph-name="aring.ss01" 
d="M288 570c-65 0 -113 46 -113 111s48 112 113 112c68 0 115 -45 115 -112c0 -65 -47 -111 -115 -111zM287 636c64 -6 62 96 0 91c-59 5 -59 -97 0 -91zM255 -9c-68 0 -121 25 -159 74c-38 50 -57 114 -57 192c0 79 19 144 56 193c38 50 91 75 159 75c67 0 117 -24 148 -71
h4l13 62h101v-516h-101l-11 62h-4c-31 -47 -80 -71 -149 -71zM282 92c87 0 128 69 128 166s-41 166 -128 166c-88 0 -127 -67 -127 -166s39 -166 127 -166z" />
    <glyph glyph-name="atilde.ss01" 
d="M339 592c-21 0 -44 7 -67 20l-14 9c-15 9 -28 14 -39 14c-19 0 -33 -16 -33 -41h-73v15c0 71 41 111 102 111c22 0 45 -7 68 -20l15 -9c16 -9 29 -13 38 -13c21 0 32 13 32 40h72v-15c0 -72 -37 -111 -101 -111zM255 -9c-68 0 -121 25 -159 74c-38 50 -57 114 -57 192
c0 79 19 144 56 193c38 50 91 75 159 75c67 0 117 -24 148 -71h4l13 62h101v-516h-101l-11 62h-4c-31 -47 -80 -71 -149 -71zM282 92c87 0 128 69 128 166s-41 166 -128 166c-88 0 -127 -67 -127 -166s39 -166 127 -166z" />
    <glyph glyph-name="caron.Slovak" horiz-adv-x="189" 
d="M112 530h-76v170h118v-10z" />
    </font>
</defs>
</svg>
